<svg
	xmlns="http://www.w3.org/2000/svg"
	xmlns:xlink="http://www.w3.org/1999/xlink" viewBox="0 0 815.89 551.36">
	<defs>
        <style>
            .cls-1,.cls-11,.cls-13,.cls-17{
            	fill:#ffed00;
            }
            .cls-1,.cls-10,.cls-13,.cls-14,.cls-17,.cls-22,.cls-23,.cls-24,.cls-25,.cls-26,.cls-35,.cls-38,.cls-39,.cls-4,.cls-5,.cls-50,.cls-6,.cls-7,.cls-8,.cls-9{
            	stroke:#1d1d1b;
            }
            .cls-1,.cls-10,.cls-13,.cls-14,.cls-17,.cls-18,.cls-19,.cls-2,.cls-22,.cls-23,.cls-24,.cls-25,.cls-26,.cls-28,.cls-33,.cls-34,.cls-35,.cls-38,.cls-39,.cls-4,.cls-5,.cls-50,.cls-6,.cls-7,.cls-8,.cls-9{
            	stroke-miterlimit:10;
            }
            .cls-1,.cls-14{
            	stroke-width:4px;
            }
            .cls-2,.cls-31{
            	fill:#cbbba0;
            }
            .cls-2,.cls-33,.cls-34{
            	stroke:#432918;
            	stroke-width:0.5px;
            }
            .cls-29,.cls-3,.cls-37,.cls-39,.cls-51{
            	fill:#1d1d1b;
            }
            .cls-3{
            	opacity:0.49;
            }
            .cls-4,.cls-50{
            	fill:#fff;
            }
            .cls-5{
            	fill:#e30613;
            }
            .cls-14,.cls-33,.cls-6{
            	fill:none;
            }
            .cls-7{
            	fill:url(#Безымянный_градиент_154);
            }
            .cls-8{
            	fill:url(#Безымянный_градиент_162);
            }
            .cls-9{
            	fill:url(#Безымянный_градиент_138);
            }
            .cls-10{
            	fill:url(#Безымянный_градиент_138-2);
            }
            .cls-12{
            	clip-path:url(#clip-path);
            }
            .cls-13{
            	stroke-width:26px;
            }
            .cls-15{
            	clip-path:url(#clip-path-2);
            }
            .cls-16{
            	clip-path:url(#clip-path-3);
            }
            .cls-17{
            	stroke-width:35px;
            }
            .cls-18{
            	fill:#bcbbba;
            	stroke:#1e1f1d;
            }
            .cls-19{
            	fill:#dae6ea;
            	stroke:#1b1e3a;
            }
            .cls-20{
            	fill:#1e1f1d;
            }
            .cls-21{
            	fill:#0b91ce;
            }
            .cls-22{
            	fill:#c6c6c6;
            }
            .cls-23{
            	fill:#b2b2b2;
            }
            .cls-24,.cls-28{
            	fill:#dadada;
            }
            .cls-25{
            	fill:#ededed;
            }
            .cls-26{
            	fill:#9d9d9c;
            }
            .cls-27{
            	fill:#1e1e1c;
            }
            .cls-28{
            	stroke:#575756;
            }
            .cls-28,.cls-35{
            	stroke-width:0.75px;
            }
            .cls-29,.cls-51{
            	font-size:12px;
            }
            .cls-29{
            	font-family: "PT Sans";
            }
            .cls-30{
            	letter-spacing:0em;
            }
            .cls-32{
            	clip-path:url(#clip-path-4);
            }
            .cls-34{
            	fill:#ca9e67;
            }
            .cls-35{
            	fill:#f39200;
            }
            .cls-36{
            	letter-spacing:-0.01em;
            }
            .cls-38{
            	fill:#3c3c3b;
            }
            .cls-40{
            	letter-spacing:0em;
            }
            .cls-41{
            	letter-spacing:-0.08em;
            }
            .cls-42{
            	letter-spacing:0.03em;
            }
            .cls-43{
            	letter-spacing:0.03em;
            }
            .cls-44{
            	letter-spacing:0em;
            }
            .cls-45{
            	letter-spacing:0em;
            }
            .cls-46{
            	letter-spacing:-0.01em;
            }
            .cls-47{
            	letter-spacing:0em;
            }
            .cls-48{
            	letter-spacing:-0.02em;
            }
            .cls-49{
            	letter-spacing:-0.01em;
            }
            .cls-50{
            	stroke-width:2px;
            }
            .cls-51{
            	font-family:ShonenNamikus-Bold, Shonen (Namikus);
            	font-weight:700;
            }

        </style>
		<linearGradient id="Безымянный_градиент_154" x1="66.1" y1="320.87" x2="191.24" y2="271.88" gradientUnits="userSpaceOnUse">
			<stop offset="0"/>
			<stop offset="0.49" stop-color="#fff" stop-opacity="0"/>
			<stop offset="1"/>
		</linearGradient>
		<linearGradient id="Безымянный_градиент_162" x1="560.97" y1="314.26" x2="686.11" y2="265.27" gradientTransform="matrix(0.93, 0.34, -0.34, 0.95, 157.68, -196.98)" gradientUnits="userSpaceOnUse">
			<stop offset="0.61" stop-color="#fff" stop-opacity="0"/>
			<stop offset="1"/>
		</linearGradient>
		<linearGradient id="Безымянный_градиент_138" x1="68.09" y1="93.54" x2="68.12" y2="93.54" gradientUnits="userSpaceOnUse">
			<stop offset="0"/>
			<stop offset="0.48" stop-color="#fff" stop-opacity="0"/>
			<stop offset="1"/>
		</linearGradient>
		<linearGradient id="Безымянный_градиент_138-2" x1="76.87" y1="171.38" x2="76.88" y2="171.38" xlink:href="#Безымянный_градиент_138"/>
		<clipPath id="clip-path" transform="translate(-18 -38.44)">
			<path class="cls-1" d="M678.47,210.3c0-.57,0-.65,0-.76-4.42-6.78-147.69,79-262,119.77-76.31,27.23-138.64,34-181.37,35.05-33.58.8-63.77-.6-63.77-.6-9.69-1-17.58-2.23-22.62-3.09,1.13,3.59,2.09,6.49,2.79,8.59.45,1.34,1,3.08,2.24,6.56.62,1.82.94,2.73,1,2.8,1.1,2.44,2.45,3.82,2.1,5.72-.06.32-.12.38-.11.44.91,5.9,106.55-6,146-10.6,0,0,158.36-29.5,228.44-62.21,4.38-2,8.38-4,12.25-6,0,0,12.66-6.47,92.73-48.12,4.62-1.58,42.49-14.77,43.06-26.68C679.19,228.88,678.12,222.19,678.47,210.3Z"/>
		</clipPath>
		<clipPath id="clip-path-2" transform="translate(-18 -38.44)">
			<path class="cls-1" d="M124.9,298.47c7.31-5.85,125.83,42.69,248.29,67.76,152.06,31.12,306,25.18,307.52,27.7a.09.09,0,0,1,0,0,20.55,20.55,0,0,1,.68,3.35,18.12,18.12,0,0,1,.11,2.27,19.28,19.28,0,0,1-.73,4.6c-1,3.4-141.56-7.58-193.11-11.69,0,0-191.57-21.26-257.09-39.79-4.1-1.16-7.72-2.28-11.16-3.38,0,0-11.28-3.61-82-26.76-2.4-4.06-5.39-9.31-8.61-15.43C125.91,301.59,124.46,298.81,124.9,298.47Z"/>
		</clipPath>
		<clipPath id="clip-path-3" transform="translate(-18 -38.44)">
			<path class="cls-1" d="M684.92,146.73c-9.13-17-133,60.9-265.23,79.43C255.51,249.17,83,179.93,81.75,185.63c-.17.77,3,2.2,6.11,7.52a30.86,30.86,0,0,1,4,11.93c4.51,31.3,204.66,45.42,204.66,45.42s209.84,15.37,279.73-7.2c4.37-1.41,8.22-2.89,11.87-4.39,0,0,12-4.92,86.83-37.08,2-9.19,4.44-21.1,7-35.09C684.32,154.09,685.46,147.74,684.92,146.73Z"/>
		</clipPath>
		<clipPath id="clip-path-4" transform="translate(-18 -38.44)">
			<polygon class="cls-2" points="644.02 58.99 635.68 78.86 650.88 84.44 661.06 60.17 656.6 61.29 657.98 57.51 655.11 61.87 648.53 59.12 645.08 56.45 644.02 58.99"/>
		</clipPath>
	</defs>
	<title>страницы нет но может быть будет</title>
	<g id="Слой_1" data-name="Слой 1">
		<ellipse class="cls-3" cx="188.69" cy="416.15" rx="40.94" ry="10.4"/>
		<path class="cls-4" d="M684.57,437.69c-9.42-8.08-19.73-9.37-24.6-9.91-5.18-.57-19.09-2.11-32.44,7.11-4.6,3.18-13.85,9.57-12.83,14.77,2.7,13.76,76.12,13.37,79.15.5C694.74,446.41,689.56,442,684.57,437.69Z" transform="translate(-18 -38.44)"/>
		<path class="cls-5" d="M678.5,124.86,633.1,163.15c-1.76-11.07-2.58-18,1.1-25.23C642.31,122.08,666.61,116.31,678.5,124.86Z" transform="translate(-18 -38.44)"/>
		<path class="cls-5" d="M679.59,298l-46.47,38.75c.2-7.95.54-23.56,1.29-57l44.73-38.16c.06,7.93.13,16.72.2,26.41Q679.47,283.82,679.59,298Z" transform="translate(-18 -38.44)"/>
		<path class="cls-4" d="M679.14,241.6l-44.73,38.16c.16-7.31.35-15.47.56-24.58.17-7.73.33-14.57.47-20.63l43.74-36.68C679,208.25,679,222.48,679.14,241.6Z" transform="translate(-18 -38.44)"/>
		<path class="cls-4" d="M680,337.45l-48.88,42c.39-10.9.59-21.84,1.56-32.63.18-2,.27-3,.45-10.05h0L679.59,298Q679.78,319.55,680,337.45Z" transform="translate(-18 -38.44)"/>
		<path class="cls-5" d="M680.72,377.89l-55.4,50.42c.56-3.4,1.33-6.82,2-10.05,2.62-12.67,3.34-25.73,3.8-38.83l48.88-42C680.18,352.86,680.41,366.29,680.72,377.89Z" transform="translate(-18 -38.44)"/>
		<path class="cls-5" d="M686.23,446.66c-2.39,4.79-8.09,5.13-32.9,4.57-8.23-.18-13.65-.35-17.37-.77l46.21-39.86c.79,10.78,1.85,18.1,3.3,22.31C686.24,435.17,688.66,441.79,686.23,446.66Z" transform="translate(-18 -38.44)"/>
		<path class="cls-4" d="M682.17,410.61,636,450.47c-5.15-.57-7.06-1.62-8.65-3.81-3.38-4.65-3.14-11.43-2-18.35l55.4-50.42C681.07,391.13,681.54,402,682.17,410.61Z" transform="translate(-18 -38.44)"/>
		<line class="cls-6" x1="660.55" y1="86.38" x2="660.5" y2="86.42"/>
		<line class="cls-6" x1="661.15" y1="203.16" x2="661.14" y2="203.16"/>
		<line class="cls-6" x1="615.12" y1="298.31" x2="615.12" y2="298.31"/>
		<line class="cls-6" x1="661.61" y1="259.55" x2="661.59" y2="259.56"/>
		<line class="cls-6" x1="607.32" y1="389.88" x2="607.31" y2="389.88"/>
		<line class="cls-6" x1="618.24" y1="155.06" x2="618.23" y2="155.08"/>
		<path class="cls-4" d="M684.31,151.76,636.24,193.5a81.64,81.64,0,0,0-.51-12.52c-.85-7-1.83-12.85-2.63-17.83l45.39-38.29a15.82,15.82,0,0,1,3.15,3C686,133.25,685.85,140.68,684.31,151.76Z" transform="translate(-18 -38.44)"/>
		<path class="cls-5" d="M684.31,151.76s0,0,0,0c-1,7.55-2.76,16.8-4.19,28.25-.49,3.91-.78,9.68-.93,17.8l-43.74,36.68c.51-22.19.76-34,.8-41.05Z" transform="translate(-18 -38.44)"/>
		<path class="cls-4" d="M227.44,420.07c-11.68-4.19-21.78-1.72-26.51-.49-5,1.31-18.59,4.83-27.77,18.21-3.17,4.61-9.52,13.88-6.72,18.38,7.43,11.89,75.88-14.65,74.12-27.75C240.05,424.6,233.63,422.29,227.44,420.07Z" transform="translate(-18 -38.44)"/>
		<path class="cls-5" d="M110.23,130l-28.76,52c-5.59-9.72-8.85-15.94-8-24C75.44,140.27,96.08,126.21,110.23,130Z" transform="translate(-18 -38.44)"/>
		<path class="cls-5" d="M173,291.33l-29.6,52.77c-2.64-7.5-7.9-22.21-19.11-53.69l28.19-51.6c2.88,7.39,6.08,15.57,9.61,24.6Q167.82,278.13,173,291.33Z" transform="translate(-18 -38.44)"/>
		<path class="cls-4" d="M152.46,238.8l-28.19,51.6L116,267.24l-6.92-19.44,27.79-49.87C140.43,207.7,145.53,221,152.46,238.8Z" transform="translate(-18 -38.44)"/>
		<path class="cls-4" d="M187.42,328l-30.7,56.65c-3.52-10.32-7.24-20.61-10.17-31-.54-1.94-.84-2.94-3.17-9.55h0L173,291.33Q180.84,311.41,187.42,328Z" transform="translate(-18 -38.44)"/>
		<path class="cls-5" d="M202.52,365.58l-33.78,66.86c-.69-3.37-1.19-6.85-1.72-10.1-2.07-12.77-6.06-25.23-10.3-37.64L187.42,328C193.09,342.38,198.1,354.85,202.52,365.58Z" transform="translate(-18 -38.44)"/>
		<path class="cls-5" d="M232.19,427.86c-.53,5.33-5.73,7.68-29.11,16-7.75,2.77-12.88,4.53-16.5,5.47l29-53.72c4.58,9.79,8.18,16.25,11,19.67C228.1,417.12,232.73,422.44,232.19,427.86Z" transform="translate(-18 -38.44)"/>
		<path class="cls-4" d="M215.54,395.62l-29,53.72c-5,1.3-7.17,1-9.44-.47-4.81-3.14-7-9.56-8.41-16.43l33.78-66.86C207.57,377.82,211.88,387.79,215.54,395.62Z" transform="translate(-18 -38.44)"/>
		<line class="cls-6" x1="92.26" y1="91.47" x2="92.23" y2="91.53"/>
		<line class="cls-6" x1="134.46" y1="200.36" x2="134.46" y2="200.37"/>
		<line class="cls-6" x1="125.39" y1="305.66" x2="125.38" y2="305.67"/>
		<line class="cls-6" x1="154.99" y1="252.88" x2="154.98" y2="252.89"/>
		<line class="cls-6" x1="150.74" y1="394" x2="150.73" y2="394.01"/>
		<line class="cls-6" x1="77.22" y1="170.72" x2="77.22" y2="170.74"/>
		<path class="cls-4" d="M125.26,153l-30,56.13a81.64,81.64,0,0,0-4.94-11.52c-3.3-6.27-6.29-11.35-8.81-15.72l28.76-52a15.82,15.82,0,0,1,4,1.66C120.2,135.14,122.74,142.12,125.26,153Z" transform="translate(-18 -38.44)"/>
		<path class="cls-5" d="M125.26,153v0c1.71,7.43,3.41,16.68,6.15,27.89.94,3.83,2.72,9.32,5.48,17L109.11,247.8c-7.44-20.91-11.43-32.07-13.89-38.64Z" transform="translate(-18 -38.44)"/>
		<path class="cls-7" d="M231.85,428.5c-.53,5.33-5.74,7.68-29.11,16-7.75,2.77-12.88,4.53-16.5,5.47-5,1.3-7.17,1-9.43-.47-4.82-3.14-7-9.54-8.41-16.42h0c-.68-3.37-1.19-6.85-1.72-10.1-2.07-12.78-6.06-25.23-10.3-37.64-3.53-10.32-7.23-20.6-10.17-31-.55-1.95-.83-2.94-3.16-9.55h0c-2.64-7.49-7.9-22.2-19.12-53.69-2.45-6.88-5.19-14.57-8.24-23.16l-6.92-19.44c-7.43-20.91-11.43-32.07-13.88-38.63a81.32,81.32,0,0,0-4.94-11.52c-3.31-6.27-6.29-11.35-8.81-15.73-5.59-9.72-8.84-15.94-8-24,1.93-17.68,22.58-31.74,36.72-28a15.51,15.51,0,0,1,4,1.66c6,3.52,8.51,10.49,11,21.4l0,0c1.71,7.43,3.41,16.68,6.15,27.88.94,3.83,2.72,9.33,5.48,17,3.53,9.77,8.63,23.05,15.55,40.87l9.61,24.6q5.75,14.73,10.92,27.93,7.85,20.07,14.44,36.72c5.67,14.33,10.68,26.8,15.1,37.53,5.05,12.25,9.35,22.21,13,30,4.58,9.79,8.18,16.25,11,19.66C227.76,417.76,232.38,423.09,231.85,428.5Z" transform="translate(-18 -38.44)"/>
		<path class="cls-8" d="M687.79,448.51c-2.33,4.9-8,5.38-32.55,5.47-8.16,0-13.52,0-17.21-.33-5.11-.45-7-1.45-8.6-3.62-3.4-4.61-3.23-11.43-2.17-18.45h0c.52-3.44,1.25-6.92,1.88-10.19,2.47-12.86,3-26,3.37-39.28.27-11,.37-22,1.22-33,.16-2,.24-3.08.35-10.15h0c.12-8,.3-23.78.7-57.52.09-7.37.19-15.61.31-24.81.09-7.8.18-14.7.25-20.83.28-22.39.41-34.35.39-41.43a83.34,83.34,0,0,0-.63-12.62c-.91-7.08-1.94-12.92-2.78-17.93-1.85-11.12-2.73-18.14.84-25.48,7.87-16.18,31.89-22.63,43.74-14.3a15.12,15.12,0,0,1,3.15,2.92c4.33,5.35,4.3,12.84,2.88,24.07,0,0,0,0,0,0-1,7.64-2.57,17-3.88,28.6-.44,4-.68,9.79-.74,18-.09,10.48.09,24.84.4,44.12.14,8,.3,16.86.47,26.64q.28,15.95.54,30.25.39,21.74.79,39.79c.34,15.54.7,29.09,1.12,40.78.48,13.35,1.05,24.28,1.76,33,.89,10.86,2,18.21,3.5,22.42C687.68,436.92,690.14,443.54,687.79,448.51Z" transform="translate(-18 -38.44)"/>
		<line class="cls-9" x1="68.12" y1="93.51" x2="68.09" y2="93.56"/>
		<line class="cls-6" x1="59.23" y1="215.32" x2="59.23" y2="215.32"/>
		<line class="cls-6" x1="49.79" y1="366.53" x2="49.78" y2="366.53"/>
		<line class="cls-6" x1="79.76" y1="267.84" x2="79.75" y2="267.85"/>
		<line class="cls-10" x1="76.88" y1="171.37" x2="76.87" y2="171.39"/>
	</g>
	<g id="ленты">
		<path class="cls-11" d="M678.47,210.3c0-.57,0-.65,0-.76-4.42-6.78-147.69,79-262,119.77-76.31,27.23-138.64,34-181.37,35.05-33.58.8-63.77-.6-63.77-.6-9.69-1-17.58-2.23-22.62-3.09,1.13,3.59,2.09,6.49,2.79,8.59.45,1.34,1,3.08,2.24,6.56.62,1.82.94,2.73,1,2.8,1.1,2.44,2.45,3.82,2.1,5.72-.06.32-.12.38-.11.44.91,5.9,106.55-6,146-10.6,0,0,158.36-29.5,228.44-62.21,4.38-2,8.38-4,12.25-6,0,0,12.66-6.47,92.73-48.12,4.62-1.58,42.49-14.77,43.06-26.68C679.19,228.88,678.12,222.19,678.47,210.3Z" transform="translate(-18 -38.44)"/>
		<g class="cls-12">
			<line class="cls-13" x1="518.69" y1="200.85" x2="579.15" y2="297.54"/>
			<line class="cls-13" x1="356.74" y1="246.09" x2="417.21" y2="342.78"/>
			<line class="cls-13" x1="173.01" y1="305.76" x2="233.48" y2="402.45"/>
			<line class="cls-13" x1="589.9" y1="183.78" x2="650.37" y2="280.47"/>
			<line class="cls-13" x1="427.96" y1="229.02" x2="488.42" y2="325.71"/>
			<line class="cls-13" x1="244.23" y1="288.69" x2="304.69" y2="385.38"/>
		</g>
		<path class="cls-14" d="M678.47,210.3c0-.57,0-.65,0-.76-4.42-6.78-147.69,79-262,119.77-76.31,27.23-138.64,34-181.37,35.05-33.58.8-63.77-.6-63.77-.6-9.69-1-17.58-2.23-22.62-3.09,1.13,3.59,2.09,6.49,2.79,8.59.45,1.34,1,3.08,2.24,6.56.62,1.82.94,2.73,1,2.8,1.1,2.44,2.45,3.82,2.1,5.72-.06.32-.12.38-.11.44.91,5.9,106.55-6,146-10.6,0,0,158.36-29.5,228.44-62.21,4.38-2,8.38-4,12.25-6,0,0,12.66-6.47,92.73-48.12,4.62-1.58,42.49-14.77,43.06-26.68C679.19,228.88,678.12,222.19,678.47,210.3Z" transform="translate(-18 -38.44)"/>
		<path class="cls-11" d="M124.9,298.47c7.31-5.85,125.83,42.69,248.29,67.76,152.06,31.12,306,25.18,307.52,27.7a.09.09,0,0,1,0,0,20.55,20.55,0,0,1,.68,3.35,18.12,18.12,0,0,1,.11,2.27,19.28,19.28,0,0,1-.73,4.6c-1,3.4-141.56-7.58-193.11-11.69,0,0-191.57-21.26-257.09-39.79-4.1-1.16-7.72-2.28-11.16-3.38,0,0-11.28-3.61-82-26.76-2.4-4.06-5.39-9.31-8.61-15.43C125.91,301.59,124.46,298.81,124.9,298.47Z" transform="translate(-18 -38.44)"/>
		<g class="cls-15">
			<line class="cls-13" x1="275.89" y1="280.25" x2="97.07" y2="322.24"/>
			<line class="cls-13" x1="457.03" y1="308.99" x2="278.21" y2="350.98"/>
			<line class="cls-13" x1="654.38" y1="345.46" x2="475.56" y2="387.45"/>
			<line class="cls-13" x1="193.47" y1="268.93" x2="14.66" y2="310.92"/>
			<line class="cls-13" x1="374.61" y1="297.67" x2="195.79" y2="339.65"/>
			<line class="cls-13" x1="571.96" y1="334.13" x2="393.14" y2="376.12"/>
		</g>
		<path class="cls-14" d="M124.9,298.47c7.31-5.85,125.83,42.69,248.29,67.76,152.06,31.12,306,25.18,307.52,27.7a.09.09,0,0,1,0,0,20.55,20.55,0,0,1,.68,3.35,18.12,18.12,0,0,1,.11,2.27,19.28,19.28,0,0,1-.73,4.6c-1,3.4-141.56-7.58-193.11-11.69,0,0-191.57-21.26-257.09-39.79-4.1-1.16-7.72-2.28-11.16-3.38,0,0-11.28-3.61-82-26.76-2.4-4.06-5.39-9.31-8.61-15.43C125.91,301.59,124.46,298.81,124.9,298.47Z" transform="translate(-18 -38.44)"/>
		<path class="cls-11" d="M684.92,146.73c-9.13-17-133,60.9-265.23,79.43C255.51,249.17,83,179.93,81.75,185.63c-.17.77,3,2.2,6.11,7.52a30.86,30.86,0,0,1,4,11.93c4.51,31.3,204.66,45.42,204.66,45.42s209.84,15.37,279.73-7.2c4.37-1.41,8.22-2.89,11.87-4.39,0,0,12-4.92,86.83-37.08,2-9.19,4.44-21.1,7-35.09C684.32,154.09,685.46,147.74,684.92,146.73Z" transform="translate(-18 -38.44)"/>
		<g class="cls-16">
			<line class="cls-17" x1="482.05" y1="98.38" x2="688.31" y2="265.5"/>
			<line class="cls-17" x1="285.08" y1="105.19" x2="491.34" y2="272.31"/>
			<line class="cls-17" x1="71.36" y1="125.36" x2="277.61" y2="292.49"/>
			<line class="cls-17" x1="571.97" y1="99.6" x2="778.22" y2="266.72"/>
			<line class="cls-17" x1="375" y1="106.42" x2="581.25" y2="273.54"/>
			<line class="cls-17" x1="161.27" y1="126.59" x2="367.52" y2="293.71"/>
		</g>
		<path class="cls-14" d="M684.92,146.73c-9.13-17-133,60.9-265.23,79.43C255.51,249.17,83,179.93,81.75,185.63c-.17.77,3,2.2,6.11,7.52a30.86,30.86,0,0,1,4,11.93c4.51,31.3,204.66,45.42,204.66,45.42s209.84,15.37,279.73-7.2c4.37-1.41,8.22-2.89,11.87-4.39,0,0,12-4.92,86.83-37.08,2-9.19,4.44-21.1,7-35.09C684.32,154.09,685.46,147.74,684.92,146.73Z" transform="translate(-18 -38.44)"/>
		<path class="cls-18" d="M471.11,418.14c-.72-2.75-3.95-1.94-6.89-5.74-4.34-5.61-1.18-12.39-3.94-13.78-2.42-1.21-7.4,2.74-10.33,6.89-6.94,9.84-5.82,25.71,0,28.21,1.94.83,3.91,0,7.54-1.64C464,429.22,472.34,422.84,471.11,418.14Z" transform="translate(-18 -38.44)"/>
		<path class="cls-18" d="M531.72,416.85c-1.36-.88-2.95-.57-4.92-.16-5.44,1.12-7.36,4.1-12.63,7.05-5.83,3.27-6.94,1.57-10,3.94-6.44,5-8.55,17.91-3.77,22.3,5.62,5.17,20.95-1.34,28-10.5A25.12,25.12,0,0,0,533.2,429C533.59,427.1,535.26,419.13,531.72,416.85Z" transform="translate(-18 -38.44)"/>
		<path class="cls-19" d="M483.29,416.32c-1.73-.27-2.27-2-3.61-3-1.71-1.23-4-.67-6.72,0-1.73.42-11.36,2.78-12.79,8.86-.49,2.06.11,3.93-1.15,4.76s-2.33-.4-3.94,0c-2.53.63-4.84,4.82-4.26,8.36.75,4.64,5.95,5.26,6.56,10.5.25,2.13-.6,2.11-.33,4.26.66,5.13,6.11,10.22,10.33,9.68,1.87-.24,3.15-1.54,4.26-.82.93.6.49,1.8,1.15,3.12,1.5,3,7.73,4.51,10.82,2.3,2.26-1.62,2.08-4.67,3.94-4.92,1.13-.15,1.6.92,2.79,1.31,3.74,1.25,11.9-5.06,12.3-12,.25-4.24-2.6-5.68-2.13-11.32.29-3.47,1.41-3.48,1.48-6.07.23-8.84-12.67-16.94-16.73-15.42A3.58,3.58,0,0,1,483.29,416.32Z" transform="translate(-18 -38.44)"/>
		<path class="cls-20" d="M482.54,431.38a6.88,6.88,0,0,0-4.37,1.21c-2.21,1.75-2.24,4.8-2.26,6.29a9.39,9.39,0,0,0,2.3,6.89c.4.42,2.85,3,6.23,2.71,4.22-.37,6.67-4.93,7.22-8.12a7.91,7.91,0,0,0-1-5.82C488.39,431.18,483.74,431.34,482.54,431.38Z" transform="translate(-18 -38.44)"/>
		<ellipse class="cls-21" cx="468.2" cy="401.08" rx="1.16" ry="1.79"/>
		<ellipse class="cls-21" cx="463.77" cy="397.73" rx="2.31" ry="2.58"/>
		<path class="cls-20" d="M466.56,426.93a4.94,4.94,0,0,0-3.6,1.21c-1.82,1.75-1.85,4.8-1.86,6.29a10.81,10.81,0,0,0,1.89,6.89c.33.42,2.34,3,5.13,2.71,3.48-.37,5.49-4.93,5.94-8.12a9.4,9.4,0,0,0-.81-5.82C471.38,426.74,467.55,426.89,466.56,426.93Z" transform="translate(-18 -38.44)"/>
		<ellipse class="cls-21" cx="452.76" cy="397.98" rx="0.95" ry="1.79"/>
		<ellipse class="cls-21" cx="449.11" cy="394.63" rx="1.9" ry="2.58"/>
	</g>
	<g id="СКОТЧ">
		<path class="cls-22" d="M700.48,505.89c.73,4.65-32.88,13.81-75.08,20.46-21.34,3.36-40.79,5.44-54.9,6.07-13.79.62-22.47-.15-22.83-2.45s7.67-5.7,21-9.34l3.65-1c13.29-3.45,31-7.07,50.45-10.14C664.94,502.86,699.74,501.24,700.48,505.89Z" transform="translate(-18 -38.44)"/>
		<path class="cls-23" d="M672.14,510.35c.49,3.1-21.9,9.2-50,13.63s-51.3,5.51-51.78,2.42c-.26-1.67,6.1-4.2,16.4-6.88,8.85-2.3,20.62-4.7,33.61-6.75C648.47,508.34,671.65,507.26,672.14,510.35Z" transform="translate(-18 -38.44)"/>
		<line class="cls-6" x1="564.5" y1="489.67" x2="563.38" y2="482.59"/>
		<line class="cls-6" x1="642.69" y1="477.42" x2="641.55" y2="470.19"/>
		<line class="cls-6" x1="527.44" y1="497.63" x2="527.44" y2="497.34"/>
		<path class="cls-24" d="M782.14,383.67l-73.88,150.4c-.84,1.71-4.4,6-5.77,6.57a295.24,295.24,0,0,1-149.55,22.72l-5.51-35c.46,2.87,9.22,4.17,23.07,3.94,14.17-.24,33.65-2.07,55-5.44,42.19-6.65,75.66-16.76,74.74-22.59l.1.64Q730.66,444.31,761,383.67l2.16,1.89,5-.68,3,.68,4.79-.85,3.33.25Z" transform="translate(-18 -38.44)"/>
		<path class="cls-25" d="M501.9,446.76,381,444.35,401.7,570.53H538.08Z" transform="translate(-18 -38.44)"/>
		<path class="cls-4" d="M501.9,446.79,381,444.35l-31,126h132.4Z" transform="translate(-18 -38.44)"/>
		<path class="cls-26" d="M385.56,451.13c-2.11,2-3.44,5-4.39,7.13-5,11.54-6.19,27.75-5.68,28.3.7.76,3.85-28.5,11.11-31.16,1.95-.71,4.58.34,5.21,3.84,1.5,8.35-9.34,25.45-8,31.16.51,2.15,2.45,1.46,3,1.28,6.51-2.31,12.4-27.13,9.72-37.14C394.73,448,389.23,447.72,385.56,451.13Z" transform="translate(-18 -38.44)"/>
		<path class="cls-26" d="M405.73,451.28c-6.81,7.69-10.12,33.69-7.88,39.48.77,2,2.34,2,3.38.49,2.51-3.57.93-14.28,3.38-19.24,2.23-4.51,4.82,1.74,7.32-3,2-3.81,2.93-12.83,1.69-17.27C412.16,446.56,408,448.69,405.73,451.28Z" transform="translate(-18 -38.44)"/>
		<path class="cls-26" d="M411.92,475.36c-.39.71-4.55,8.24-3.43,13.68,1.08,5.24,6.89,7.66,9.79,2.28,3.19-5.91,1.61-18.9-1-20.85C415.41,469.06,412.94,473.52,411.92,475.36Z" transform="translate(-18 -38.44)"/>
		<path class="cls-4" d="M407.17,458.45c-.2.28-2.28,3.28-1.71,5.45a2.72,2.72,0,0,0,4.89.91c1.59-2.35.81-7.53-.49-8.3C408.92,455.94,407.68,457.71,407.17,458.45Z" transform="translate(-18 -38.44)"/>
		<path class="cls-26" d="M442.87,484.82c-.39.32-4.55,3.71-3.43,6.16s6.89,3.45,9.79,1c3.19-2.66,1.61-8.51-1-9.39C446.36,482,443.89,484,442.87,484.82Z" transform="translate(-18 -38.44)"/>
		<path class="cls-4" d="M413.42,481.21c-.13.25-1.54,2.92-1.16,4.85s2.33,2.71,3.31.81c1.08-2.09.55-6.7-.33-7.38C414.6,479,413.76,480.55,413.42,481.21Z" transform="translate(-18 -38.44)"/>
		<path class="cls-4" d="M444.37,487.12c-.13.15-1.54,1.71-1.16,2.83a2.07,2.07,0,0,0,3.31.47c1.08-1.22.55-3.91-.33-4.32C445.55,485.81,444.71,486.74,444.37,487.12Z" transform="translate(-18 -38.44)"/>
		<path class="cls-26" d="M424,475.43c1.55,3.94,2.89,10.54,1.37,15.11-2.79,8.36-14.16,6.92-14.69,12.59-.28,3,2.66,6.66,4.78,6.45,1.55-.15,2-2.29,4.44-6,1.22-1.86,6-9.18,8.88-8,1.77.74,2.58,4.64,2.39,7.56-.32,5.14-3.72,7-3.08,9.24.86,3.07,8.4,4.69,10.59,1.26,3-4.7-7.19-13.85-5.13-24.77,2.33-12.3,18.21-16.32,17.43-18.89-.5-1.64-7.43-1.61-12.64,2.94-4.72,4.12-5.13,9.42-7.18,9.24-4.09-.37-4.9-21.86-7.86-21.83-1.14,0-2.28,3.19-2.39,5.88C420.76,469.89,422.58,471.86,424,475.43Z" transform="translate(-18 -38.44)"/>
		<path class="cls-26" d="M459.77,481.3c-3.61,8.35-3.18,13.12-5.46,15.43-3.44,3.48-7-4.79-8.55-1.54s.08,14.75,2.14,15.43c1.31.44,1.75-3.88,4-6.69,4.41-5.42,11.85-.52,12.82,6.69.65,4.79-1.76,9.08-1.19,10.29,1,2,8.47-7.8,7.84-14.4-.56-5.78-6.84-3.67-8.55-11.83s2.68-19,1.66-20.58C463.81,473,461.3,477.75,459.77,481.3Z" transform="translate(-18 -38.44)"/>
		<path class="cls-26" d="M468,491.9c-1.63-2.17,16.88-42.09,22.18-38.63,4.83,3.15-2.93,41.24-3.41,41.12-.32-.08,2.88-17.08-1.71-21.6a3.74,3.74,0,0,0-4.27-.83c-3.06,1.51-2.77,7.22-6.26,13.29C472.1,489.48,468.55,492.66,468,491.9Z" transform="translate(-18 -38.44)"/>
		<path class="cls-4" d="M485.89,459.77c-.18.33-2.12,3.89-1.59,6.46s3.2,3.62,4.56,1.08c1.48-2.79.75-8.93-.46-9.85C487.52,456.79,486.37,458.9,485.89,459.77Z" transform="translate(-18 -38.44)"/>
		<path class="cls-26" d="M381.46,508c-10.19,10.87-17.89,38.9-13.9,47.65,1.15,2.51,3.42,3.78,4.72,2.43,2.71-2.81-.2-15.51,2.88-19.45,1.65-2.11,4.63-1.23,5.51,1.46,1.68,5.16-5,15.21-3.41,19.93.88,2.61,3.89,2.39,5.77,1.46,10.95-5.44,14.13-50.29,11.8-52-1.83-1.35-7.22,23.51-12.06,21.39-1.47-.64-2.6-3.65-2.88-6.32-.92-8.58,6.46-17.19,5.77-19C385.36,504.77,383.73,505.53,381.46,508Z" transform="translate(-18 -38.44)"/>
		<path class="cls-26" d="M407,520.35c-8.45,6.49-14.19,26.12-10.15,35.3,3.1,7,12.21,8.53,14.77,3.31,1.15-2.35,1.27-6.64,0-8.82-2.44-4.21-8.55,2-10.15-1.47-1.2-2.55.5-9.54,3.23-11,3.41-1.85,6.64,5.84,9,3.68,1.48-1.36,2-6,.92-8.46-1.62-3.7-6.29-1-6.92-3.68-.4-1.67,1-4.84,2.77-5.88,3-1.76,5.49,3.5,7.85,1.47a6.08,6.08,0,0,0,1.62-5.15C419.07,516.38,412,516.52,407,520.35Z" transform="translate(-18 -38.44)"/>
		<path class="cls-26" d="M431.95,561.22c-5.24-5.09,16.14-25.28,11.13-29.77-2.93-2.63-12.37,2.42-14.31,0-1.46-1.82,2.05-6.9,6.76-9.81,12-7.43,35.08-2.57,37.77,5.41,1.32,3.91-2,9.32-6,10.15-5,1-8.52-5.69-12.33-4.74-6.33,1.58.25,21.05-10.74,27.74C440.24,562.66,434.05,563.26,431.95,561.22Z" transform="translate(-18 -38.44)"/>
	</g>
	<g id="МОЛЬКИ">
		<path class="cls-27" d="M451.37,449.38c-1.63-.84,2.7-11.14,5.39-11.32,1.37-.09,2.48,2.44,2,4.7-.51,2.41-2.72,4-4.23,5.07C453.2,448.78,451.94,449.67,451.37,449.38Z" transform="translate(-18 -38.44)"/>
		<path class="cls-27" d="M461.56,450c.65,1.94,12.75-1,13.4-4,.33-1.5-2.28-3.16-4.85-3-2.75.14-4.87,2.3-6.31,3.77C462.53,448.11,461.33,449.34,461.56,450Z" transform="translate(-18 -38.44)"/>
		<path class="cls-18" d="M791,349.36c-.72-2.75-3.95-1.94-6.89-5.74-4.34-5.61-1.18-12.39-3.94-13.78-2.42-1.21-7.4,2.74-10.33,6.89-6.94,9.84-5.82,25.71,0,28.21,1.94.83,3.91,0,7.54-1.64C783.89,360.44,792.26,354.05,791,349.36Z" transform="translate(-18 -38.44)"/>
		<path class="cls-18" d="M831.18,344.66c-1.36-.88-2.95-.57-4.92-.16-5.44,1.12-7.36,4.1-12.63,7.05-5.83,3.27-6.94,1.57-10,3.94-6.44,5-8.55,17.91-3.77,22.3,5.62,5.17,20.95-1.34,28-10.5a25.12,25.12,0,0,0,4.76-10.5C833.05,354.91,834.72,346.95,831.18,344.66Z" transform="translate(-18 -38.44)"/>
		<path class="cls-19" d="M797.75,344.14c-1.73-.27-2.27-2-3.61-3-1.71-1.23-4-.67-6.72,0-1.73.42-11.36,2.78-12.79,8.86-.49,2.06.11,3.93-1.15,4.76s-2.33-.4-3.94,0c-2.53.63-4.84,4.82-4.26,8.36.75,4.64,5.95,5.26,6.56,10.5.25,2.13-.6,2.11-.33,4.26.66,5.13,6.11,10.22,10.33,9.68,1.87-.24,3.15-1.54,4.26-.82.93.6.49,1.8,1.15,3.12,1.5,3,7.73,4.51,10.82,2.3,2.26-1.62,2.08-4.67,3.94-4.92,1.13-.15,1.6.92,2.79,1.31,3.74,1.25,11.9-5.06,12.3-12,.25-4.24-2.6-5.68-2.13-11.32.29-3.47,1.41-3.48,1.48-6.07.23-8.84-12.67-16.94-16.73-15.42A3.58,3.58,0,0,1,797.75,344.14Z" transform="translate(-18 -38.44)"/>
		<path class="cls-20" d="M796.12,360.38a9.43,9.43,0,0,0-4.1,1.8,8,8,0,0,0-3.44,4.51c-.81,3.48,1.81,6.37,2.3,6.89s2.85,3,6.23,2.71c4.22-.37,6.67-4.93,7.22-8.12.19-1.12.65-3.79-1-5.82C801.08,359.55,796.71,360.28,796.12,360.38Z" transform="translate(-18 -38.44)"/>
		<path class="cls-20" d="M769.55,360.87c.39-.24,1.38,2,4,3.53,4.06,2.39,8.3,1,8.36,1.48s-5.63,3.35-9.43.82C769.84,364.91,769.08,361.16,769.55,360.87Z" transform="translate(-18 -38.44)"/>
		<ellipse class="cls-21" cx="779.99" cy="332.78" rx="1.16" ry="1.79"/>
		<ellipse class="cls-21" cx="775.56" cy="329.43" rx="2.31" ry="2.58"/>
		<path class="cls-27" d="M796,391.5c1.92,4.16-2.19,9.31-3.5,10.94-.6.75-2.19,2.74-3.21,2.36a1.29,1.29,0,0,1-.68-1c-.22-1.26,1.3-2,2.41-3.59a9.1,9.1,0,0,0,1.23-7.38c-.52-1.64-1.68-2.94-1.07-4.05a1.23,1.23,0,0,1,.59-.57C792.93,387.77,795.13,389.6,796,391.5Z" transform="translate(-18 -38.44)"/>
		<path class="cls-27" d="M801.11,387.12c2.26,2.48,1.08,6.81.7,8.18-.17.63-.63,2.31-1.35,2.24a1,1,0,0,1-.68-.55c-.46-.82.28-1.61.55-2.93a7.29,7.29,0,0,0-1.17-5.3c-.75-1-1.8-1.69-1.71-2.57a.79.79,0,0,1,.21-.51C798.25,385.16,800.08,386,801.11,387.12Z" transform="translate(-18 -38.44)"/>
		<path class="cls-27" d="M762.43,360.56c-2.27.88-2.75,4.23-2.9,5.29-.07.49-.26,1.78.25,2a.71.71,0,0,0,.62-.13c.56-.39.28-1.19.5-2.18a5.06,5.06,0,0,1,2.37-3.18c.81-.43,1.72-.51,1.92-1.14a.62.62,0,0,0,0-.42C765,360.24,763.47,360.15,762.43,360.56Z" transform="translate(-18 -38.44)"/>
		<path class="cls-27" d="M763.67,365.49c-2.29.86-2.69,4.33-2.82,5.42-.06.5-.21,1.85.31,2.08a.69.69,0,0,0,.63-.12c.56-.39.26-1.23.45-2.25a4.9,4.9,0,0,1,2.32-3.24c.81-.43,1.74-.49,1.93-1.13a.65.65,0,0,0,0-.43C766.23,365.22,764.71,365.09,763.67,365.49Z" transform="translate(-18 -38.44)"/>
		<path class="cls-27" d="M761,392.21c-1.31.08,7.49-9.17,10.33-10.45,1.45-.65,1.51.71.06,2.54s-4.49,4-6.49,5.45A19.51,19.51,0,0,1,761,392.21Z" transform="translate(-18 -38.44)"/>
		<path class="cls-27" d="M765.73,393.79c-.23,1.34,10.49-5.72,12.14-8.38.84-1.36-.59-1.72-2.68-.63s-4.74,3.75-6.45,5.51C767.23,391.86,765.81,393.32,765.73,393.79Z" transform="translate(-18 -38.44)"/>
		<path class="cls-19" d="M92.9,378.76c1.69,1.66,1.1,4,1.89,6.17,1,2.73,3.87,3.88,7.31,5.26,2.17.87,14.27,5.73,20,0,1.95-2,2.59-4.55,4.53-4.5s2.25,2.28,4.28,3.08c3.19,1.26,8.59-1.69,10.41-6.16,2.39-5.85-2.84-10.63.11-17,1.2-2.61,2.11-1.92,3.3-4.58,2.83-6.34.41-16.38-4.55-19.07-2.19-1.19-4.49-.72-5.2-2.41-.6-1.41.71-2.44.9-4.44.45-4.6-5.29-11.17-10.19-11.08-3.58.07-5.48,3.67-7.68,2.5-1.33-.71-1.11-2.29-2.13-3.67-3.21-4.35-16.43-3.57-21.64,4-3.2,4.62-1.09,8.48-5.5,14.51C86.08,345,84.84,344.12,83,347c-6.35,9.86,2.08,29.15,7.55,30.59A4.65,4.65,0,0,1,92.9,378.76Z" transform="translate(-18 -38.44)"/>
		<path class="cls-27" d="M80.75,360.87c-4.1-1.42-8.72,4-10.18,5.69-.67.79-2.46,2.87-2,3.93a1.08,1.08,0,0,0,1,.58c1.21,0,1.79-1.76,3.25-3.26,1.72-1.76,4.58-3,6.95-2.6,1.6.3,2.92,1.36,3.93.49a1.51,1.51,0,0,0,.5-.74C84.52,363.64,82.63,361.52,80.75,360.87Z" transform="translate(-18 -38.44)"/>
		<path class="cls-27" d="M84.05,368.63c-4,1.66-4.54,9-4.71,11.35-.08,1.07-.28,3.92.66,4.45a1,1,0,0,0,1.11-.21c1-.8.39-2.59.68-4.75.33-2.55,1.84-5.47,4-6.74,1.42-.85,3.06-.91,3.36-2.28a1.64,1.64,0,0,0,0-.92C88.58,368.24,85.89,367.87,84.05,368.63Z" transform="translate(-18 -38.44)"/>
		<path class="cls-27" d="M101.65,381c1.48,4.3-4.66,9.28-6.6,10.86-.89.73-3.27,2.65-4.43,2.22a1.08,1.08,0,0,1-.63-1c0-1.28,2-1.93,3.72-3.5,2-1.85,3.5-4.89,3.07-7.39-.29-1.68-1.45-3.05-.45-4.14a1.78,1.78,0,0,1,.84-.55C98.65,377,101,379,101.65,381Z" transform="translate(-18 -38.44)"/>
		<path class="cls-27" d="M109.58,388.09c1.48,4.3-4.66,9.28-6.6,10.86-.89.73-3.27,2.65-4.43,2.22a1.08,1.08,0,0,1-.63-1c0-1.28,2-1.93,3.72-3.5,2-1.85,3.5-4.89,3.07-7.39-.29-1.68-1.45-3.05-.45-4.14a1.78,1.78,0,0,1,.84-.55C106.58,384.17,108.9,386.12,109.58,388.09Z" transform="translate(-18 -38.44)"/>
		<path class="cls-27" d="M149.61,345.32c1.21.24-6,9.54-8.5,10.39-1.28.43-1.47-1.29-.32-3.2s3.74-3.88,5.45-5.13C147.76,346.28,149.19,345.24,149.61,345.32Z" transform="translate(-18 -38.44)"/>
		<path class="cls-27" d="M144.33,333.31c.73-1.44-10.57-2.4-13-.62-1.22.91-.25,2.64,1.83,3.17s5.26-.34,7.32-1C142.35,334.33,144.07,333.81,144.33,333.31Z" transform="translate(-18 -38.44)"/>
		<path class="cls-18" d="M73.47,307c-.91,1.85-.32,3.8.45,6.23C76,319.94,80,321.9,84.36,328.08c4.84,6.84,2.87,8.5,6.22,12,7,7.35,23.4,8,28.23,1.3,5.69-7.88-4.44-26.19-16.77-33.72a30.66,30.66,0,0,0-13.68-4.37C86,303.08,75.84,302.22,73.47,307Z" transform="translate(-18 -38.44)"/>
		<path class="cls-18" d="M109.73,389.25c.79,4.63,4.5,3.3,7.81,9.72,4.9,9.48,1.2,20.86,4.33,23.21,2.75,2.07,8.51-4.53,11.91-11.48,8.07-16.47,7-43.18.36-47.44-2.21-1.42-4.48,0-8.66,2.68C118,370.68,108.38,381.34,109.73,389.25Z" transform="translate(-18 -38.44)"/>
		<path class="cls-18" d="M213,523.83c-3.6-1.89-5.86,2.3-12.72,1.73-10.13-.84-14.24-10.73-18.36-9.15-3.62,1.38-4.26,10.47-2.71,17.57,3.68,16.84,21.55,31,29.81,27.26,2.76-1.25,3.74-4.17,5.56-9.56C217.78,542.08,219.12,527.07,213,523.83Z" transform="translate(-18 -38.44)"/>
		<path class="cls-18" d="M281.81,487.77c-2.3-.28-4.15,1.11-6.43,2.88-6.3,4.86-6.9,9.9-11.82,17-5.45,7.87-7.95,6.38-10.4,11.35-5.16,10.45.25,28.42,9.15,31.07,10.48,3.13,26.12-14.88,29.5-31.12a36,36,0,0,0-.47-16.49C290.66,499.79,287.8,488.49,281.81,487.77Z" transform="translate(-18 -38.44)"/>
		<path class="cls-19" d="M241.83,515.89c-2.48-.39-3.26-2.86-5.17-4.23-2.45-1.76-5.71-1-9.63,0-2.47.6-16.26,4-18.32,12.68-.69,2.94.16,5.63-1.64,6.81s-3.33-.58-5.64,0c-3.62.91-6.92,6.9-6.11,12,1.07,6.64,8.52,7.53,9.39,15,.36,3.05-.87,3-.47,6.11.94,7.35,8.75,14.63,14.79,13.86,2.67-.34,4.51-2.2,6.11-1.17,1.33.86.71,2.58,1.64,4.46,2.15,4.32,11.06,6.46,15.5,3.29,3.24-2.32,3-6.68,5.64-7,1.62-.22,2.29,1.31,4,1.88,5.36,1.79,17-7.25,17.61-17.14.35-6.07-3.72-8.13-3.05-16.2.41-5,2-5,2.11-8.69.33-12.66-18.14-24.26-24-22.07A5.13,5.13,0,0,1,241.83,515.89Z" transform="translate(-18 -38.44)"/>
		<path class="cls-20" d="M249.86,537.35c-1.75-2.78-1.5-3.88-3.12-4.95-2.48-1.64-5.94-.91-8.12.11-4.64,2.17-5.58,7.67-5.73,8.68-.12.83-.86,5.86,2.47,9.41,4.15,4.42,11.45,3.14,15.52.94.89-.48,5.84-3,5.69-6.26C256.44,542.69,253.09,542.48,249.86,537.35Z" transform="translate(-18 -38.44)"/>
		<ellipse class="cls-21" cx="229.38" cy="504.94" rx="1.66" ry="2.56"/>
		<ellipse class="cls-21" cx="223" cy="501.24" rx="3.31" ry="3.7"/>
		<path class="cls-27" d="M250.53,575c5.35.43,8.24,7.61,9.15,9.88.42,1,1.54,3.82.56,4.64a1.51,1.51,0,0,1-1.4.13c-1.41-.5-1.27-2.46-2.27-4.53a10.67,10.67,0,0,0-6.82-5.51c-2-.41-4,0-4.75-1.25a1.45,1.45,0,0,1-.24-.93C244.94,576,248.08,574.85,250.53,575Z" transform="translate(-18 -38.44)"/>
		<path class="cls-27" d="M262.81,570.89c4.73.86,7.13,6.82,7.89,8.71.35.87,1.28,3.17.4,3.73a1.46,1.46,0,0,1-1.24,0c-1.23-.53-1.07-2.08-1.91-3.81a10.44,10.44,0,0,0-5.92-5c-1.74-.52-3.51-.36-4.17-1.45a1.14,1.14,0,0,1-.2-.76C257.86,571.15,260.65,570.5,262.81,570.89Z" transform="translate(-18 -38.44)"/>
		<path class="cls-27" d="M212.94,573.26c-3.47-.39-6.31,3.54-7.21,4.78-.41.57-1.51,2.09-1,2.7a1,1,0,0,0,.88.25c1-.13,1.15-1.32,2.08-2.43a7.24,7.24,0,0,1,5.11-2.46c1.32,0,2.52.5,3.2-.17a.88.88,0,0,0,.28-.52C216.35,574.54,214.52,573.44,212.94,573.26Z" transform="translate(-18 -38.44)"/>
		<path class="cls-27" d="M206.75,569.36a17.51,17.51,0,0,0-7.59,1.76c-.46.21-1.68.76-1.23,1a2.22,2.22,0,0,0,.85.09c1,0,1.26-.48,2.28-.89a16.42,16.42,0,0,1,5.3-.91,13.47,13.47,0,0,0,3.2-.07c.07,0,.28-.09.33-.19C210,569.81,208.32,569.42,206.75,569.36Z" transform="translate(-18 -38.44)"/>
		<path class="cls-27" d="M263,530.06c-.32,1.92,15-8.19,17.38-12,1.2-1.94-.85-2.46-3.84-.9-3.2,1.67-6.78,5.37-9.23,7.9C265.13,527.28,263.1,529.38,263,530.06Z" transform="translate(-18 -38.44)"/>
		<path class="cls-28" d="M208.88,519.27c-2.52,1.78,3.44,18.09,15.65,30,10.3,10,28.49,20.25,39.22,14.25,3.6-2,6.56-6,5.66-8-1.48-3.23-11.63,2.24-22.06-1.85-7-2.76-7.14-7.11-18.1-18.5C228.09,534,211.83,517.18,208.88,519.27Z" transform="translate(-18 -38.44)"/>
		<path class="cls-28" d="M219.25,510.51c2.24-4.93,13.45-6.76,17.54-2.51,3.22,3.35,1.18,9.58-.89,17-10.41,37.27-6.93,52.21-15.57,54.59-5.21,1.44-12.21-2.42-13.42-6.8-1.73-6.24,9-10.73,16.11-27.56,2.18-5.19,3.44-8.18,3.4-12.53C226.31,520.91,216.86,515.76,219.25,510.51Z" transform="translate(-18 -38.44)"/>
		<path class="cls-28" d="M193.86,536.75c-2.58,2.25-2,10.33,1,15.57a14.62,14.62,0,0,0,4.44,4.84c5,3.4,57.66,36.31,69.6,16.37,2.54-4.25,3.56-11.42,1.38-14.08-1.82-2.22-5.24-.53-9.78.19-5.65.9-10.65-.6-20.67-3.62a167.36,167.36,0,0,1-35.4-15.6C199.82,537.58,196,534.87,193.86,536.75Z" transform="translate(-18 -38.44)"/>
		<path class="cls-28" d="M212.63,530.2c-6.46-7.39-7.94-7.58-8.77-7.52-4.5.33-8.94,9.27-6.49,13.8,1.26,2.33,3.61,2.13,8.05,4.53A37.4,37.4,0,0,1,216,550.33c7.82,10.21,4.16,22.63,6.61,23.62,2,.82,4.36-3.8,5.11-9.61,0-.18.08-.59.11-1.09.28-4.33-1-13.26-7.32-23.2C218.59,537,216.6,534.75,212.63,530.2Z" transform="translate(-18 -38.44)"/>
		<text class="cls-29" transform="translate(253.85 472.19)">П
			<tspan class="cls-30" x="7.67" y="0">О</tspan>
			<tspan x="15.9" y="0">МОГИТЕ...</tspan>
		</text>
		<path class="cls-18" d="M669.09,94.36c-1-3.9-5.6-2.75-9.77-8.14-6.16-8-1.68-17.58-5.58-19.54-3.43-1.72-10.5,3.89-14.65,9.77-9.85,14-8.25,36.46,0,40,2.75,1.18,5.55-.05,10.7-2.33C659,110.08,670.83,101,669.09,94.36Z" transform="translate(-18 -38.44)"/>
		<path class="cls-18" d="M755.06,92.53c-1.92-1.24-4.18-.81-7-.23-7.72,1.59-10.44,5.81-17.91,10-8.27,4.64-9.84,2.23-14.19,5.58-9.13,7.06-12.12,25.4-5.35,31.63,8,7.34,29.71-1.9,39.77-14.89a35.63,35.63,0,0,0,6.75-14.89C757.71,107.06,760.07,95.77,755.06,92.53Z" transform="translate(-18 -38.44)"/>
		<path class="cls-19" d="M686.37,91.79c-2.45-.39-3.23-2.83-5.12-4.19-2.43-1.74-5.66-.95-9.54,0-2.45.6-16.11,3.94-18.14,12.56-.69,2.92.16,5.57-1.63,6.75s-3.3-.57-5.58,0c-3.59.9-6.86,6.84-6,11.86,1.06,6.58,8.44,7.46,9.3,14.89.35,3-.86,3-.47,6,.93,7.28,8.67,14.49,14.65,13.72,2.65-.34,4.47-2.18,6-1.16,1.32.85.7,2.56,1.63,4.42,2.13,4.28,11,6.4,15.35,3.26,3.21-2.3,2.95-6.62,5.58-7,1.6-.22,2.27,1.3,4,1.86,5.31,1.77,16.88-7.18,17.45-17,.35-6-3.69-8.05-3-16,.41-4.92,2-4.94,2.09-8.61.32-12.54-18-24-23.73-21.86A5.08,5.08,0,0,1,686.37,91.79Z" transform="translate(-18 -38.44)"/>
		<path class="cls-20" d="M699.74,112.3a7,7,0,0,0-3.34-.95,9.71,9.71,0,0,0-3.26.54,8.86,8.86,0,0,0-3,1.29c-1.76,1.27-3,3.36-2.78,3.64s1.26-1.21,3.15-1.76c1.07-.31,2.12-.12,4.19.29a16.44,16.44,0,0,1,3,.75,11.38,11.38,0,0,1,4.2,3.28c.54.62,1.38,1.69,3,3.42.76.83,1.07,1.14,1.26,1,.44-.33,0-3-.88-5.13a15.14,15.14,0,0,0-4-5.2A7.6,7.6,0,0,0,699.74,112.3Z" transform="translate(-18 -38.44)"/>
		<path class="cls-20" d="M670.44,101.6a7,7,0,0,0-3.34-.95,9.71,9.71,0,0,0-3.26.54,8.86,8.86,0,0,0-3,1.29c-1.76,1.27-3,3.36-2.78,3.64s1.26-1.21,3.15-1.76c1.07-.31,2.12-.12,4.19.29a16.44,16.44,0,0,1,3,.75,11.38,11.38,0,0,1,4.2,3.28c.54.62,1.38,1.69,3,3.42.76.83,1.07,1.14,1.26,1,.44-.33,0-3-.88-5.13a15.14,15.14,0,0,0-4-5.2A7.6,7.6,0,0,0,670.44,101.6Z" transform="translate(-18 -38.44)"/>
		<path class="cls-27" d="M671,71c5.72,3.09,5.41,12.44,5.32,15.4,0,1.36-.16,5-1.64,5.41a1.83,1.83,0,0,1-1.61-.55c-1.32-1.24-.2-3.35-.31-6.12a12.91,12.91,0,0,0-4.87-9.43c-2-1.42-4.41-1.91-4.65-3.7a1.75,1.75,0,0,1,.18-1.15C664.33,69.39,668.38,69.59,671,71Z" transform="translate(-18 -38.44)"/>
		<path class="cls-27" d="M713.24,86.4c-6.2-2.09-12.72,5.48-14.79,7.88-.95,1.1-3.47,4-2.76,5.53a1.74,1.74,0,0,0,1.51.85c1.81.07,2.55-2.46,4.62-4.56,2.44-2.47,6.61-4.22,10.17-3.55,2.4.45,4.43,2,5.89.77a2,2,0,0,0,.7-1C719,90.39,716.08,87.35,713.24,86.4Z" transform="translate(-18 -38.44)"/>
		<path class="cls-27" d="M629.85,132c-1.77-.6,14.78-8,19.19-8.11,2.25-.07,1.59,1.74-1.29,3.36-3.09,1.73-8.06,2.86-11.46,3.64C633.29,131.53,630.47,132.17,629.85,132Z" transform="translate(-18 -38.44)"/>
		<path class="cls-27" d="M633.94,103.3c-.69-1.74,15.65,6.11,18.6,9.39,1.51,1.67-.3,2.34-3.4,1.19-3.32-1.23-7.4-4.3-10.18-6.38C636.5,105.65,634.18,103.91,633.94,103.3Z" transform="translate(-18 -38.44)"/>
		<path class="cls-27" d="M640,90.24c0-1.87,12,11.71,13.49,15.88.74,2.13-1.19,2-3.59-.22-2.57-2.43-5.15-6.84-6.9-9.84C641.47,93.39,640,90.89,640,90.24Z" transform="translate(-18 -38.44)"/>
		<path class="cls-27" d="M682.86,175.35c1.2,1.61,6-16.08,5-20.43-.51-2.22-2.57-1.21-3.81,1.94-1.32,3.37-1.42,8.48-1.48,12C682.49,171.89,682.44,174.78,682.86,175.35Z" transform="translate(-18 -38.44)"/>
		<path class="cls-27" d="M704.88,170c1.78.94-1.46-17.09-4.22-20.6-1.41-1.79-2.84,0-2.62,3.38.24,3.61,2.33,8.27,3.76,11.44C703.06,167,704.25,169.64,704.88,170Z" transform="translate(-18 -38.44)"/>
		<path class="cls-27" d="M730.86,137.51c1.61-1.21-16.11-5.88-20.46-4.87-2.22.52-1.2,2.58,2,3.8,3.38,1.31,8.48,1.37,12,1.42C727.4,137.9,730.3,137.94,730.86,137.51Z" transform="translate(-18 -38.44)"/>
		<polygon class="cls-31" points="626.02 20.56 617.68 40.42 632.88 46 643.06 21.74 638.6 22.85 639.98 19.07 637.11 23.44 630.53 20.68 627.08 18.02 626.02 20.56"/>
		<g class="cls-32">
			<line class="cls-2" x1="628.88" y1="15.46" x2="617.21" y2="43.27"/>
			<line class="cls-2" x1="635.51" y1="18.24" x2="623.83" y2="46.05"/>
			<line class="cls-2" x1="630.7" y1="16.22" x2="619.02" y2="44.03"/>
			<line class="cls-2" x1="637.32" y1="19" x2="625.65" y2="46.82"/>
			<line class="cls-2" x1="633.06" y1="17.21" x2="621.38" y2="45.02"/>
			<line class="cls-2" x1="639.68" y1="19.99" x2="628.01" y2="47.81"/>
			<line class="cls-2" x1="634.01" y1="17.61" x2="622.34" y2="45.43"/>
			<line class="cls-2" x1="640.63" y1="20.39" x2="628.96" y2="48.21"/>
			<line class="cls-2" x1="631.53" y1="18.43" x2="619.86" y2="46.24"/>
			<line class="cls-2" x1="638.16" y1="21.21" x2="626.48" y2="49.03"/>
		</g>
		<polygon class="cls-33" points="626.02 20.56 617.68 40.42 632.88 46 643.06 21.74 638.6 22.85 639.98 19.07 637.11 23.44 630.53 20.68 627.08 18.02 626.02 20.56"/>
		<polyline class="cls-34" points="614.64 60.69 621.07 45.36 616.49 39.13 621.28 27.71 638.74 33.6 632.77 47.81 627.39 47.44 618.16 66.81 615.33 65.62"/>
		<path class="cls-18" d="M67,488.34c-4,1-2.85,5.76-8.42,10-8.23,6.32-18.13,1.67-20.16,5.7-1.79,3.53,4,10.84,10,15.14,14.35,10.19,37.57,8.62,41.25.12,1.23-2.84,0-5.72-2.37-11C83.18,498.83,73.88,486.56,67,488.34Z" transform="translate(-18 -38.44)"/>
		<path class="cls-18" d="M165.32,541.09c1-2.16.15-4.38-.89-7.14-2.87-7.6-7.61-9.69-13.08-16.62-6.06-7.66-3.86-9.66-8-13.54-8.66-8.16-27.83-8.23-33.07-.32-6.18,9.31,6.75,29.94,21.6,38.09A36.73,36.73,0,0,0,148.13,546C150.95,546.15,162.83,546.72,165.32,541.09Z" transform="translate(-18 -38.44)"/>
		<path class="cls-19" d="M104,476.79c-2.53-.4-3.33-2.92-5.28-4.32-2.5-1.79-5.83-1-9.83,0-2.52.62-16.61,4.06-18.7,12.95-.71,3,.16,5.75-1.68,7s-3.4-.59-5.76,0c-3.7.93-7.07,7-6.23,12.23,1.09,6.78,8.7,7.69,9.59,15.35.36,3.12-.88,3.08-.48,6.23,1,7.5,8.93,14.94,15.11,14.15,2.73-.35,4.61-2.25,6.23-1.2,1.36.88.72,2.64,1.68,4.56,2.2,4.41,11.3,6.6,15.83,3.36,3.31-2.37,3-6.83,5.76-7.19,1.65-.22,2.34,1.34,4.08,1.92,5.47,1.83,17.4-7.4,18-17.51.36-6.2-3.8-8.3-3.12-16.55.42-5.07,2.06-5.09,2.16-8.87.33-12.93-18.53-24.78-24.46-22.54A5.24,5.24,0,0,1,104,476.79Z" transform="translate(-18 -38.44)"/>
		<path class="cls-20" d="M102.34,498.31c-.89.16-5.78,1.13-8,5.36a11.4,11.4,0,0,0-1.05,6.09c.05,2.32.1,6.64,3.36,10.07.59.62,4.16,4.39,9.11,4,6.17-.54,9.75-7.21,10.55-11.87a12,12,0,0,0-1.44-8.51C112.13,499.15,106.75,497.53,102.34,498.31Z" transform="translate(-18 -38.44)"/>
		<path class="cls-20" d="M73.25,493.3c-.89.16-5.78,1.13-8,5.36a11.4,11.4,0,0,0-1.05,6.09c.05,2.32.1,6.64,3.36,10.07.59.62,4.16,4.39,9.11,4,6.17-.54,9.75-7.21,10.55-11.87a12,12,0,0,0-1.44-8.51C83,494.14,77.65,492.52,73.25,493.3Z" transform="translate(-18 -38.44)"/>
		<ellipse class="cls-21" cx="84.22" cy="480.13" rx="1.04" ry="1.61"/>
		<ellipse class="cls-21" cx="80.24" cy="477.12" rx="2.08" ry="2.32"/>
		<ellipse class="cls-21" cx="55.48" cy="476.9" rx="1.04" ry="1.61"/>
		<ellipse class="cls-21" cx="51.5" cy="473.89" rx="2.08" ry="2.32"/>
		<path class="cls-27" d="M59,492.71c1.81-6.45,11.27-8.27,14.27-8.85,1.38-.27,5-1,5.81.42a1.88,1.88,0,0,1-.18,1.75c-.95,1.6-3.32,1-6.09,1.7a13.31,13.31,0,0,0-8.37,7c-1,2.32-.91,4.87-2.66,5.52a1.81,1.81,0,0,1-1.2.08C58.85,499.78,58.13,495.66,59,492.71Z" transform="translate(-18 -38.44)"/>
		<path class="cls-27" d="M132.31,510.46c.81-6.67-7.66-11.85-10.35-13.5-1.23-.75-4.51-2.76-5.81-1.75a1.84,1.84,0,0,0-.52,1.69c.28,1.84,2.84,2.12,5.24,3.83a13,13,0,0,1,5.33,9.64c0,2.52-1,4.86.39,6.11a1.9,1.9,0,0,0,1.13.51C129.6,517.08,131.94,513.51,132.31,510.46Z" transform="translate(-18 -38.44)"/>
		<path class="cls-27" d="M111.58,539.63c3.31,3.62,1.58,10,1,12-.25.92-.92,3.37-2,3.28a1.49,1.49,0,0,1-1-.8c-.67-1.2.41-2.35.8-4.28a10.66,10.66,0,0,0-1.71-7.75c-1.09-1.5-2.63-2.46-2.5-3.76a1.16,1.16,0,0,1,.31-.74C107.4,536.78,110.07,538,111.58,539.63Z" transform="translate(-18 -38.44)"/>
		<path class="cls-27" d="M68.65,531.38c-4.24,1.06-4.71,8.13-4.87,10.37-.07,1-.26,3.77.75,4.42a1.12,1.12,0,0,0,1.17-.05c1-.64.39-2.46.67-4.52.33-2.43,1.89-5.06,4.11-6,1.5-.63,3.23-.46,3.53-1.75a1.48,1.48,0,0,0,0-.9C73.45,531.64,70.59,530.89,68.65,531.38Z" transform="translate(-18 -38.44)"/>
		<path class="cls-27" d="M64.22,526.39c-3.32,1.29-4,6.19-4.25,7.74-.1.71-.37,2.61.37,2.92a1,1,0,0,0,.91-.19c.81-.57.42-1.74.73-3.18A7.39,7.39,0,0,1,65.44,529c1.19-.63,2.52-.75,2.81-1.67a.9.9,0,0,0,0-.61C67.92,525.92,65.74,525.8,64.22,526.39Z" transform="translate(-18 -38.44)"/>
		<path class="cls-27" d="M118.77,534.8c2.1-1.43,4.18,5.39,4.84,7.55.3,1,1.11,3.63.85,4.87-.1.48-.34.65-.52.64-.61,0-.82-2.25-1.48-4.15-.78-2.24-2.15-4-3.35-3.6-.81.25-1.51,1.44-2,.32a2.85,2.85,0,0,1-.22-.93C116.78,537.88,117.81,535.45,118.77,534.8Z" transform="translate(-18 -38.44)"/>
		<path class="cls-35" d="M82.65,478.63c-.07,3.45,9.5,6,10.72,6.34,6.91,1.85,19.36,2.8,23.39-3.9.37-.61,1.77-2.93,1-5.12-1.85-5.12-14.14-5.13-21.93-3.66C94.31,472.57,82.72,474.85,82.65,478.63Z" transform="translate(-18 -38.44)"/>
		<path class="cls-35" d="M86.75,472.64c1.45-5.34,6.44-7.72,7.48-8.22A16.71,16.71,0,0,1,111,466.27c1.85,1.35,5.92,4.32,5.44,7.43-1.07,7-24.88,12.22-29.33,5.64C85.54,477.08,86.47,473.66,86.75,472.64Z" transform="translate(-18 -38.44)"/>
		<text class="cls-29" transform="translate(0 438.06)">
			<tspan class="cls-36">х</tspan>
			<tspan x="5.39" y="0">оспади...</tspan>
		</text>
		<path class="cls-37" d="M722.15,146.26c-.68-3.12,2.19-6,3-6.75,4-3.9,11.65-6.09,16.75-2.5,3.84,2.7,5.91,8.46,4.25,10.5a2.91,2.91,0,0,1-3.25.75c-1.75-.86-.64-3.67-2.5-6-1.64-2-4.75-2.71-7.25-2.25a8.49,8.49,0,0,0-6,4.75c-1.24,2.69-.28,4.86-1.25,5.25S722.65,148.52,722.15,146.26Z" transform="translate(-18 -38.44)"/>
		<path class="cls-38" d="M717.15,145.76c5.16-5,20,7,29.5.5,1.63-1.11,3.08-2.75,4-2.25,1.51.82-1.13,6-1.5,14.25s1.92,9.41.25,12.75c-3,6.09-13.07,6.72-17.5,7s-14.25.9-17.25-4.25c-1.75-3,.54-5,1.5-15.25C717.05,149,715.37,147.49,717.15,145.76Z" transform="translate(-18 -38.44)"/>
		<path class="cls-39" d="M723.66,143.92c-.39-.07-.81,1.06-1.62,2.75-2.21,4.58-3.09,4.52-3.35,6.37-.37,2.69,1,6.05,2.91,6.32,1.3.19,2.77-1.15,3.46-2.49,1.13-2.2-.33-3.46-.83-9.7C724.08,145.4,724.08,144,723.66,143.92Z" transform="translate(-18 -38.44)"/>
		<text class="cls-29" transform="translate(46.33 257.56)">пада
			<tspan class="cls-40" x="24.42" y="0">е</tspan>
			<tspan class="cls-41" x="30.38" y="0">т</tspan>
			<tspan x="34.4" y="0">..!</tspan>
		</text>
		<text class="cls-29" transform="translate(700.17 286.9)">
			<tspan class="cls-42">к</tspan>
			<tspan x="6.07" y="0">леим-</tspan>
			<tspan class="cls-43" x="36.17" y="0">к</tspan>
			<tspan x="42.24" y="0">леим </tspan>
			<tspan class="cls-44" x="71.19" y="0">лялял</tspan>
			<tspan class="cls-45" x="101.59" y="0">я</tspan>
		</text>
		<text class="cls-29" transform="translate(677.57 39.31)">при
			<tspan class="cls-36" x="19.97" y="0">х</tspan>
			<tspan class="cls-46" x="25.36" y="0">о</tspan>
			<tspan x="31.86" y="0">д</tspan>
			<tspan class="cls-47" x="38.22" y="0">и</tspan>
			<tspan class="cls-48" x="44.83" y="0">т</tspan>
			<tspan x="49.52" y="0">е по</tspan>
			<tspan class="cls-44" x="71.16" y="0">з</tspan>
			<tspan class="cls-49" x="76.38" y="0">ж</tspan>
			<tspan x="84.31" y="0">е</tspan>
		</text>
	</g>
	<g id="табличка">
		<path class="cls-50" d="M250.23,156.64c7.13-8.84,26.09-27.49,159.2-24.74,141,2.92,157.38,24.63,162.43,33.35C578.65,177,575,182.52,570.78,247c-6,91.37.21,96.42-9.68,110.79-19.71,28.63-70.42,30.24-171,32.27-104,2.1-120.56-10.92-128-18.29-23.65-23.42-24.46-58.32-25.82-117.25C235,202.33,234.45,176.22,250.23,156.64Z" transform="translate(-18 -38.44)"/>
		<text class="cls-51" transform="translate(86 10.2)"></text>
		<path class="cls-37" d="M271.39,170.82q-1.1,0-1.67-1.64a10.24,10.24,0,0,1-.57-3.37,8.59,8.59,0,0,1,1.26-5.07,5.35,5.35,0,0,1,3-2.18,16.28,16.28,0,0,1,4.14-.71q3.25,0,6,3.89a28.75,28.75,0,0,1,4.28,9.54,44.48,44.48,0,0,1,1.49,11.37,48.85,48.85,0,0,1-1,9.63,45.28,45.28,0,0,1-2.62,8.73,19.32,19.32,0,0,1-4.14,6.36,7.5,7.5,0,0,1-5.31,2.44,8.27,8.27,0,0,1-5.4-1.8q-1.78-1.48-1.78-5.27a10.36,10.36,0,0,1,.71-3.76q.7-1.83,1.9-1.83a1.53,1.53,0,0,1,1.2.51,5.52,5.52,0,0,1,.49.51l.52.58a3.32,3.32,0,0,0,2.15,1.28,5.19,5.19,0,0,0,4-1.83,18,18,0,0,0,3.1-5.62,24.54,24.54,0,0,0,.77-2.5l-.25-.13a4.24,4.24,0,0,0-1-.06,37.23,37.23,0,0,0-4,.32,37,37,0,0,1-4,.32q-1.26,0-2-1.73A10,10,0,0,1,272,185a9.67,9.67,0,0,1,.74-3.76q.74-1.77,1.93-1.77a20.69,20.69,0,0,1,2.35.19,20.67,20.67,0,0,0,2.32.19q3.62,0,5-.9c0-.08,0-.13,0-.13a2.29,2.29,0,0,0,0-.26,1.66,1.66,0,0,1,0-.19,14.35,14.35,0,0,0-2.52-6.55q-2.12-3.08-4.08-3.08a11.45,11.45,0,0,0-5.55,1.86A1.5,1.5,0,0,1,271.39,170.82Z" transform="translate(-18 -38.44)"/>
		<path class="cls-37" d="M293.48,170q-1.26,0-2-2.09a12.16,12.16,0,0,1-.75-4.14,7.51,7.51,0,0,1,.78-3.66,2.3,2.3,0,0,1,2-1.41q2.61,0,7.85-.29t7.89-.29a2.52,2.52,0,0,1,2.16,1.51,7.68,7.68,0,0,1,.87,3.89,9.35,9.35,0,0,1-.84,4.08q-.84,1.77-2.16,1.77a22.91,22.91,0,0,1-2.71-.23A23,23,0,0,0,304,169q-.18,1.35-.28,2.76-.37,6.49-.37,16.31,0,6.49.46,11.82.28,3.15.28,5.2a10.16,10.16,0,0,1-.6,3.63q-.6,1.57-1.83,1.57-2.48,0-2.7-5.59,0-.77,0-2.31,0-5.14-.15-15.41t-.15-15.42c0-.26,0-.64,0-1.16s0-.88,0-1.09q0-.58-.15-.58a1.81,1.81,0,0,0-.71-.13,3.92,3.92,0,0,0-2.24.71A4.13,4.13,0,0,1,293.48,170Z" transform="translate(-18 -38.44)"/>
		<path class="cls-37" d="M312.35,210.19a2.11,2.11,0,0,1-1.87-1.38,7.5,7.5,0,0,1-.71-3.44,15.43,15.43,0,0,1,.28-3.08q.06-.26.71-2.44a53,53,0,0,0,1.26-5.33q.58-3,1-5.65.55-3,1.56-9.15t1.56-9.15q.06-.26.25-1.44t.34-1.9q.34-1.8.66-3.11t.86-2.92a8.16,8.16,0,0,1,1.23-2.47,1.93,1.93,0,0,1,1.49-.87q.83,0,1.7,1.41a16.67,16.67,0,0,1,1.5,3.18q.63,1.77,1.33,4.59t1,4.27q.31,1.45.74,3.69.77,3.85,1.47,8.13t1.35,8.54q.64,4.27.71,4.53t.92,4.43a25.74,25.74,0,0,1,.67,4.75q0,4.82-2.27,4.82-2.67,0-2.67-6.29a21.8,21.8,0,0,0-.12-2.18,36.68,36.68,0,0,0-.86-3.66l-.09-.23a2.27,2.27,0,0,1-.09-.29l-.06-.13s-.09-.06-.21-.06h-.49a9.82,9.82,0,0,1-1.73-.23,9.94,9.94,0,0,0-1.7-.22,11.66,11.66,0,0,0-6,1.28s0,.06,0,.06,0,0,0,.06a10.13,10.13,0,0,0-.25,1.28q-.43,3.28-.55,4Q314.31,210.19,312.35,210.19Zm9-38.15a120.23,120.23,0,0,0-3.41,16.57,31.18,31.18,0,0,0,6.81-1,3.66,3.66,0,0,0-.09-.58A110.9,110.9,0,0,0,321.31,172Z" transform="translate(-18 -38.44)"/>
		<path class="cls-37" d="M348.28,185.79a59.2,59.2,0,0,1,.89-10.44,43,43,0,0,1,2.55-9,17.26,17.26,0,0,1,4.27-6.33,8.44,8.44,0,0,1,5.77-2.34,9.45,9.45,0,0,1,2.16.26,9.91,9.91,0,0,1,2.39,1,5.19,5.19,0,0,1,2.12,2.31,8.62,8.62,0,0,1,.81,3.92,9.42,9.42,0,0,1-.72,3.82q-.72,1.64-2,1.64a2.6,2.6,0,0,1-1.32-.58,5.14,5.14,0,0,1-.57-.42,6,6,0,0,1-.48-.42,4.82,4.82,0,0,0-2.85-1q-3.53,0-5.78,5.78a35.09,35.09,0,0,0-2.25,12.85A22.76,22.76,0,0,0,355,196q1.73,3.95,4.43,4a7.21,7.21,0,0,0,2.62-.58,4.58,4.58,0,0,0,2.19-1.67q1.54-2.25,2.39-2.25,1.23,0,2,1.7a9.54,9.54,0,0,1,.74,3.82,7.53,7.53,0,0,1-1.23,4.24,8.4,8.4,0,0,1-3,2.83,16.51,16.51,0,0,1-3.33,1.41,9.85,9.85,0,0,1-2.64.45,6.29,6.29,0,0,1-4.63-2.25,17.16,17.16,0,0,1-3.45-5.78,42.66,42.66,0,0,1-2.07-7.74A48.5,48.5,0,0,1,348.28,185.79Z" transform="translate(-18 -38.44)"/>
		<path class="cls-37" d="M374.54,170q-1.26,0-2-2.09a12.14,12.14,0,0,1-.75-4.14,7.52,7.52,0,0,1,.78-3.66,2.3,2.3,0,0,1,2-1.41q2.61,0,7.85-.29t7.88-.29a2.52,2.52,0,0,1,2.16,1.51,7.68,7.68,0,0,1,.88,3.89,9.35,9.35,0,0,1-.84,4.08q-.85,1.77-2.16,1.77a22.92,22.92,0,0,1-2.72-.23,23,23,0,0,0-2.53-.22q-.18,1.35-.28,2.76-.37,6.49-.37,16.31,0,6.49.46,11.82.28,3.15.28,5.2a10.18,10.18,0,0,1-.6,3.63q-.6,1.57-1.83,1.57-2.49,0-2.7-5.59,0-.77,0-2.31,0-5.14-.15-15.41t-.15-15.42q0-.39,0-1.16c0-.51,0-.88,0-1.09,0-.39-.05-.58-.15-.58a1.82,1.82,0,0,0-.71-.13,3.92,3.92,0,0,0-2.24.71A4.13,4.13,0,0,1,374.54,170Z" transform="translate(-18 -38.44)"/>
		<path class="cls-37" d="M396.14,179.81q0-2.5,0-7.48t0-7.42a10.5,10.5,0,0,1,.8-4.17q.8-1.86,2.15-1.86a7.51,7.51,0,0,0,2-.39,7.5,7.5,0,0,1,1.93-.39,18.07,18.07,0,0,1,2.81.22,24.39,24.39,0,0,1,3.22.77,10.65,10.65,0,0,1,3.33,1.7,16.18,16.18,0,0,1,2.85,2.79,12.18,12.18,0,0,1,2.09,4.24,20.76,20.76,0,0,1,.77,5.88,24,24,0,0,1-1.27,8,17.66,17.66,0,0,1-3.36,6,26.57,26.57,0,0,1-4.11,3.82,18.36,18.36,0,0,1-4.17,2.31,34.15,34.15,0,0,1-4.33,1.35h-.09q0,1.09.18,3.05t.18,2.6q0,.32.12,1.61t.09,2a13.44,13.44,0,0,1-.52,3.82Q400.31,210,399,210T397,208.23a9.65,9.65,0,0,1-.78-3.95q0-4.11,0-12.27T396.14,179.81Zm4.94-4.24q-.18,5.78-.18,8.61l0,.06a.06.06,0,0,1,.06.06.38.38,0,0,0,.2.1l.2,0a3.83,3.83,0,0,0,1.17.13,7.9,7.9,0,0,0,3.53-.9,12.9,12.9,0,0,0,1.93-1.19,17.41,17.41,0,0,0,2.19-2,10.16,10.16,0,0,0,1.95-2.92,8.59,8.59,0,0,0,.77-3.56,5,5,0,0,0-2.06-3.34,8.84,8.84,0,0,0-5.77-2.5H404a3.75,3.75,0,0,0-2.58.77,1.09,1.09,0,0,1,0,.26Q401.17,172.75,401.08,175.57Z" transform="translate(-18 -38.44)"/>
		<path class="cls-37" d="M420.13,210.19a2.11,2.11,0,0,1-1.87-1.38,7.5,7.5,0,0,1-.71-3.44,15.51,15.51,0,0,1,.28-3.08q.06-.26.71-2.44a53.31,53.31,0,0,0,1.26-5.33q.58-3,1-5.65.55-3,1.56-9.15t1.57-9.15q.06-.26.25-1.44t.34-1.9q.34-1.8.66-3.11t.86-2.92a8.12,8.12,0,0,1,1.23-2.47,1.93,1.93,0,0,1,1.49-.87q.83,0,1.7,1.41a16.61,16.61,0,0,1,1.5,3.18q.63,1.77,1.33,4.59t1,4.27q.31,1.45.74,3.69.77,3.85,1.47,8.13t1.35,8.54q.64,4.27.71,4.53t.92,4.43a25.83,25.83,0,0,1,.67,4.75q0,4.82-2.27,4.82-2.67,0-2.67-6.29-.06-1.93-.12-2.18a36.63,36.63,0,0,0-.86-3.66l-.09-.23a2.12,2.12,0,0,1-.09-.29l-.06-.13s-.09-.06-.21-.06h-.49a9.82,9.82,0,0,1-1.73-.23,9.93,9.93,0,0,0-1.7-.22,11.66,11.66,0,0,0-6,1.28s0,.06,0,.06,0,0,0,.06a10,10,0,0,0-.25,1.28q-.43,3.28-.55,4Q422.1,210.19,420.13,210.19Zm9-38.15a120.38,120.38,0,0,0-3.41,16.57,31.18,31.18,0,0,0,6.81-1,3.8,3.8,0,0,0-.09-.58A110.71,110.71,0,0,0,429.09,172Z" transform="translate(-18 -38.44)"/>
		<path class="cls-37" d="M443.48,167.61q0-1.86.06-3.08t.28-2.83a6.07,6.07,0,0,1,.75-2.44,1.61,1.61,0,0,1,1.4-.83,2.67,2.67,0,0,1,2.21,1.54,7.35,7.35,0,0,1,1,3.92q0,3.79-.15,5.65-.43,5.27-.43,10.21a15.39,15.39,0,0,0,2.7-.26q1.44-.26,3.19-.67t2.7-.61h.09q-.09-4.56-.09-9,0-.51,0-1.51t0-1.8q0-.8,0-1.51a27.22,27.22,0,0,1,.25-3,6.81,6.81,0,0,1,.74-2.7,1.73,1.73,0,0,1,1.57-.83q1.35,0,2.18,1.86a10.16,10.16,0,0,1,.83,4.17q0,2.57-.26,7.77t-.26,7.77v1.73a11.51,11.51,0,0,0,.09,1.35q.12,1.16.12,1.67a7.93,7.93,0,0,1,0,.83,9.21,9.21,0,0,0-.15,1.67q0,9,.28,14.39,0,.39.14,1.7t.11,2a8.75,8.75,0,0,1-.75,3.69q-.75,1.64-1.95,1.64t-1.86-1.67a9.88,9.88,0,0,1-.66-3.66q0-.71.11-1.9t.11-1.44q.09-1.35.09-4.17,0-6.42-.15-8.8v-.13l-.18-.06a.75.75,0,0,0-.28-.06h-.67a10.59,10.59,0,0,0-1.18.1,10.49,10.49,0,0,1-1.18.1h-1.84a10.25,10.25,0,0,0-3.47.77.17.17,0,0,1-.12.06q0,2.5.11,7.45t.11,7.39a10,10,0,0,1-.71,3.79q-.71,1.73-1.9,1.73t-1.89-1.8a12.32,12.32,0,0,1-.6-3.92q0-.77.06-2.41t.06-2.41q0-5.27-.25-15.77T443.48,167.61Z" transform="translate(-18 -38.44)"/>
		<path class="cls-37" d="M469.44,210.06q-1.26,0-1.84-1.7a11.53,11.53,0,0,1-.58-3.76q0-1.22,0-2.63t.12-3.11q.08-1.7.11-2.67.09-3.28.09-6.68,0-3.79-.17-11.4t-.17-11.4v-2.83a11.5,11.5,0,0,1,.78-4q.72-1.8,2-1.8t2.15,1.8a9.28,9.28,0,0,1,.86,4q0,2.31-.25,4.88-.62,7-.61,18.11,0,.83,0,2.47t0,2.41,0,1.06q0,.93,0,1.57a2.88,2.88,0,0,0,0,.29c0,.11,0,.18,0,.23q1.66-3.08,4.48-12.4t3.74-14.13q1-5.07,1.57-7.26,1-3.4,2.48-3.4,1.26,0,2,1.86a10.54,10.54,0,0,1,.75,4q0,1.67-.2,4.85t-.23,4.59q0,2,0,5.84V201.2q0,1.8-.08,3.12a25.12,25.12,0,0,1-.32,2.76,5.08,5.08,0,0,1-.83,2.22,1.78,1.78,0,0,1-1.47.77q-1.07,0-1.69-2.12a16.32,16.32,0,0,1-.61-4.56q0-1.41.2-4t.23-3.76q0-1.54,0-4.62,0-.9,0-3.08t0-3.79q0-1.6-.11-3,0-.45,0-1.41-.68,2.5-1.37,4.88t-1.84,6.2q-1.15,3.82-2.29,6.94t-2.38,6.07a23.53,23.53,0,0,1-2.46,4.62Q470.39,210.06,469.44,210.06Z" transform="translate(-18 -38.44)"/>
		<path class="cls-37" d="M490.76,167.16a25.47,25.47,0,0,1,.63-6.49q.63-2.25,2.53-2.25a1.89,1.89,0,0,1,1.95,1.38,12.46,12.46,0,0,1,.48,3.89q0,1.73-.25,4.91t-.28,3.89q-.24,4.3-.25,13,0,1,0,3t0,3a74.27,74.27,0,0,0,.31,7.9l.12.51a23.42,23.42,0,0,0,3.62-.42,23.62,23.62,0,0,1,3.65-.42l.17,0,.14,0a11.37,11.37,0,0,0,.09-1.67v-1.48q0-5.2-.21-15.61t-.21-15.67a15.09,15.09,0,0,1,.52-4.56,2,2,0,0,1,1.93-1.54q2.79,0,2.79,7.26,0,5.72-.35,16.89t-.35,16.7q2.45.19,2.45,4.75a48.41,48.41,0,0,1-.89,7.64q-.06.32-.26,1.8t-.38,2.31q-.74,3.21-2.09,3.21-1,0-1.47-1.35a8.39,8.39,0,0,1-.49-2.89q0-.51.06-1.67,0-.45.15-1.48.18-2.06.18-2.76h-.09a.27.27,0,0,0-.12,0,.26.26,0,0,1-.12,0,42.54,42.54,0,0,1-8.56.9l-.94,0-1,0q-2.95,0-2.95-9.57,0-5.52-.26-16.54T490.76,167.16Z" transform="translate(-18 -38.44)"/>
		<path class="cls-37" d="M515.15,210.19a2.11,2.11,0,0,1-1.87-1.38,7.5,7.5,0,0,1-.71-3.44,15.51,15.51,0,0,1,.28-3.08q.06-.26.71-2.44a53.31,53.31,0,0,0,1.26-5.33q.58-3,1-5.65.55-3,1.56-9.15t1.57-9.15q.06-.26.25-1.44t.34-1.9q.34-1.8.66-3.11t.86-2.92a8.12,8.12,0,0,1,1.23-2.47,1.93,1.93,0,0,1,1.49-.87q.83,0,1.7,1.41a16.61,16.61,0,0,1,1.5,3.18q.63,1.77,1.33,4.59t1,4.27q.31,1.45.74,3.69.77,3.85,1.47,8.13t1.35,8.54q.64,4.27.71,4.53t.92,4.43a25.83,25.83,0,0,1,.67,4.75q0,4.82-2.27,4.82-2.67,0-2.67-6.29-.06-1.93-.12-2.18a36.63,36.63,0,0,0-.86-3.66l-.09-.23a2.12,2.12,0,0,1-.09-.29l-.06-.13s-.09-.06-.21-.06h-.49a9.82,9.82,0,0,1-1.73-.23,9.93,9.93,0,0,0-1.7-.22,11.66,11.66,0,0,0-6,1.28s0,.06,0,.06,0,0,0,.06a10,10,0,0,0-.25,1.28q-.43,3.28-.55,4Q517.11,210.19,515.15,210.19Zm9-38.15a120.38,120.38,0,0,0-3.41,16.57,31.18,31.18,0,0,0,6.81-1,3.8,3.8,0,0,0-.09-.58A110.71,110.71,0,0,0,524.11,172Z" transform="translate(-18 -38.44)"/>
		<path class="cls-37" d="M268.27,262.86a59.29,59.29,0,0,1,.89-10.44,43.08,43.08,0,0,1,2.55-9,17.25,17.25,0,0,1,4.26-6.33,8.44,8.44,0,0,1,5.77-2.34,9.45,9.45,0,0,1,2.16.26,9.89,9.89,0,0,1,2.39,1,5.18,5.18,0,0,1,2.12,2.31,8.6,8.6,0,0,1,.81,3.92,9.42,9.42,0,0,1-.72,3.82q-.72,1.64-2,1.64a2.59,2.59,0,0,1-1.32-.58,5,5,0,0,1-.57-.42,5.83,5.83,0,0,1-.48-.42,4.82,4.82,0,0,0-2.85-1q-3.53,0-5.78,5.78a35.09,35.09,0,0,0-2.25,12.85A22.78,22.78,0,0,0,275,273.1q1.73,3.95,4.43,4a7.22,7.22,0,0,0,2.62-.58,4.59,4.59,0,0,0,2.19-1.67q1.53-2.25,2.39-2.25,1.23,0,2,1.7a9.52,9.52,0,0,1,.74,3.82,7.54,7.54,0,0,1-1.23,4.24,8.4,8.4,0,0,1-3,2.83,16.46,16.46,0,0,1-3.33,1.41,9.85,9.85,0,0,1-2.64.45,6.29,6.29,0,0,1-4.63-2.25,17.15,17.15,0,0,1-3.45-5.78,42.73,42.73,0,0,1-2.07-7.74A48.5,48.5,0,0,1,268.27,262.86Z" transform="translate(-18 -38.44)"/>
		<path class="cls-37" d="M294.35,287.26a2.11,2.11,0,0,1-1.87-1.38,7.5,7.5,0,0,1-.71-3.44,15.43,15.43,0,0,1,.28-3.08q.06-.26.71-2.44a53,53,0,0,0,1.26-5.33q.58-3,1-5.65.55-3,1.56-9.15t1.56-9.15q.06-.26.25-1.44t.34-1.9q.34-1.8.66-3.11t.86-2.92a8.16,8.16,0,0,1,1.23-2.47,1.93,1.93,0,0,1,1.49-.87q.83,0,1.7,1.41a16.67,16.67,0,0,1,1.5,3.18q.63,1.77,1.33,4.59t1,4.27q.31,1.45.74,3.69.77,3.85,1.47,8.13t1.35,8.54q.64,4.27.71,4.53t.92,4.43a25.74,25.74,0,0,1,.67,4.75q0,4.82-2.27,4.82-2.67,0-2.67-6.29a21.8,21.8,0,0,0-.12-2.18,36.68,36.68,0,0,0-.86-3.66l-.09-.23a2.27,2.27,0,0,1-.09-.29l-.06-.13s-.09-.06-.21-.06h-.49a9.82,9.82,0,0,1-1.73-.23,9.94,9.94,0,0,0-1.7-.22,11.66,11.66,0,0,0-6,1.28s0,.06,0,.06,0,0,0,.06a10.13,10.13,0,0,0-.25,1.28q-.43,3.28-.55,4Q296.32,287.26,294.35,287.26Zm9-38.15a120.23,120.23,0,0,0-3.41,16.57,31.18,31.18,0,0,0,6.81-1,3.66,3.66,0,0,0-.09-.58A110.9,110.9,0,0,0,303.31,249.11Z" transform="translate(-18 -38.44)"/>
		<path class="cls-37" d="M320.13,287.14q-1.26,0-1.84-1.7a11.53,11.53,0,0,1-.58-3.76q0-1.22,0-2.63t.12-3.11q.08-1.7.11-2.67.09-3.28.09-6.68,0-3.79-.17-11.4t-.17-11.4V241a11.5,11.5,0,0,1,.78-4q.72-1.8,2-1.8t2.15,1.8a9.28,9.28,0,0,1,.86,4q0,2.31-.25,4.88-.62,7-.61,18.11,0,.83,0,2.47t0,2.41,0,1.06q0,.93,0,1.57a2.88,2.88,0,0,0,0,.29c0,.11,0,.18,0,.23q1.66-3.08,4.48-12.4t3.74-14.13q1-5.07,1.57-7.26,1-3.4,2.48-3.4,1.26,0,2,1.86a10.54,10.54,0,0,1,.75,4q0,1.67-.2,4.85t-.23,4.59q0,2,0,5.84v22.29q0,1.8-.08,3.12a25.12,25.12,0,0,1-.32,2.76,5.08,5.08,0,0,1-.83,2.22,1.78,1.78,0,0,1-1.47.77q-1.07,0-1.69-2.12a16.32,16.32,0,0,1-.61-4.56q0-1.41.2-4t.23-3.76q0-1.54,0-4.62,0-.9,0-3.08t0-3.79q0-1.6-.11-3,0-.45,0-1.41-.68,2.5-1.37,4.88t-1.84,6.2q-1.15,3.82-2.29,6.94t-2.38,6.07a23.53,23.53,0,0,1-2.46,4.62Q321.08,287.14,320.13,287.14Zm1.66-58.06a10,10,0,0,1,.49-3.44q.49-1.32,1.47-1.32t1.93,1.73a9.46,9.46,0,0,0,1.27,2.15,1.93,1.93,0,0,0,1.49.55q.92,0,1.41-1.67a5.51,5.51,0,0,1,.92-1.89,1.59,1.59,0,0,1,1.2-.74q1.07,0,1.66,1.51a9.16,9.16,0,0,1-1,8.38,13,13,0,0,1-2.36,2.76,3.9,3.9,0,0,1-2.52.83q-1.87,0-3.91-2.67A9.91,9.91,0,0,1,321.78,229.07Z" transform="translate(-18 -38.44)"/>
		<path class="cls-37" d="M343.29,247.12q-1.26,0-2-2.09a12.16,12.16,0,0,1-.75-4.14,7.51,7.51,0,0,1,.78-3.66,2.3,2.3,0,0,1,2-1.41q2.61,0,7.85-.29t7.89-.29a2.52,2.52,0,0,1,2.16,1.51,7.68,7.68,0,0,1,.87,3.89,9.35,9.35,0,0,1-.84,4.08q-.84,1.77-2.16,1.77a22.91,22.91,0,0,1-2.71-.23,23,23,0,0,0-2.53-.22q-.18,1.35-.28,2.76-.37,6.49-.37,16.31,0,6.49.46,11.82.28,3.15.28,5.2a10.16,10.16,0,0,1-.6,3.63q-.6,1.57-1.83,1.57-2.48,0-2.7-5.59,0-.77,0-2.31,0-5.14-.15-15.41t-.15-15.42c0-.26,0-.64,0-1.16s0-.88,0-1.09q0-.58-.15-.58a1.81,1.81,0,0,0-.71-.13,3.92,3.92,0,0,0-2.24.71A4.13,4.13,0,0,1,343.29,247.12Z" transform="translate(-18 -38.44)"/>
		<path class="cls-37" d="M362.16,287.26a2.11,2.11,0,0,1-1.87-1.38,7.5,7.5,0,0,1-.71-3.44,15.43,15.43,0,0,1,.28-3.08q.06-.26.71-2.44a53,53,0,0,0,1.26-5.33q.58-3,1-5.65.55-3,1.56-9.15t1.56-9.15q.06-.26.25-1.44t.34-1.9q.34-1.8.66-3.11t.86-2.92a8.16,8.16,0,0,1,1.23-2.47,1.93,1.93,0,0,1,1.49-.87q.83,0,1.7,1.41a16.67,16.67,0,0,1,1.5,3.18q.63,1.77,1.33,4.59t1,4.27q.31,1.45.74,3.69.77,3.85,1.47,8.13t1.35,8.54q.64,4.27.71,4.53t.92,4.43a25.74,25.74,0,0,1,.67,4.75q0,4.82-2.27,4.82-2.67,0-2.67-6.29a21.8,21.8,0,0,0-.12-2.18,36.68,36.68,0,0,0-.86-3.66l-.09-.23a2.27,2.27,0,0,1-.09-.29l-.06-.13s-.09-.06-.21-.06h-.49a9.82,9.82,0,0,1-1.73-.23,9.94,9.94,0,0,0-1.7-.22,11.66,11.66,0,0,0-6,1.28s0,.06,0,.06,0,0,0,.06a10.13,10.13,0,0,0-.25,1.28q-.43,3.28-.55,4Q364.12,287.26,362.16,287.26Zm9-38.15a120.23,120.23,0,0,0-3.41,16.57,31.18,31.18,0,0,0,6.81-1,3.66,3.66,0,0,0-.09-.58A110.9,110.9,0,0,0,371.12,249.11Z" transform="translate(-18 -38.44)"/>
		<path class="cls-37" d="M398.24,244.55a11.61,11.61,0,0,1,.77-4.43,7.2,7.2,0,0,1,1.76-2.73,7.35,7.35,0,0,1,2.56-1.38,11,11,0,0,1,2.49-.58q.92-.06,2.24-.06.77,0,2.27.13t2.24.13a6.8,6.8,0,0,1,1.58.16,5.54,5.54,0,0,1,1.47.64,3.13,3.13,0,0,1,1.26,1.73,9.62,9.62,0,0,1,.45,3.18,10.42,10.42,0,0,1-.15,1.54q-.12,1-.12,1.09-.09,1.67-.15,7.26-.15,8.48-.15,15.22,0,2.18.11,6.52t.11,6.46q0,1.48,0,2.18a9.25,9.25,0,0,1-.84,3.76q-.78,1.64-2,1.64t-1.9-1.61a8.68,8.68,0,0,1-.74-3.66q0-1,.31-3.85.34-3.08.34-3.53.06-4.11.06-6.29,0-3.15-.06-6.68t-.17-7.84q-.11-4.3-.14-6.68v-1h-.12a9.31,9.31,0,0,0-4.08-.58q-3,0-3.74.51l-.18.13,0,.13a1.85,1.85,0,0,1,0,.19,2.08,2.08,0,0,0,0,.26q0,1.22,0,3.73,0,1.86,0,5.68t0,5.75q0,2.18-.08,6.62t-.08,6.62c0,.21,0,.49,0,.83s0,.6,0,.77q0,.84.12,2.38t.12,2.38a10.43,10.43,0,0,1-.72,3.92q-.72,1.8-2,1.8t-1.84-1.64a9.26,9.26,0,0,1-.68-3.56q0-.51.15-2.44t.18-2.18q0-.58,0-1.73t0-1.54q.09-3.21.09-6.36,0-8.22-.31-14,0-.71-.28-4T398.24,244.55Z" transform="translate(-18 -38.44)"/>
		<path class="cls-37" d="M430.76,286.81q-2.85-1.16-5-5a30.91,30.91,0,0,1-3.07-8.83,52.42,52.42,0,0,1-1-10.08q0-1.54.09-3,1.84-24.73,12.76-24.73,5.46,0,8.81,6.49t3.34,16.44a61,61,0,0,1-.87,10.31,50.86,50.86,0,0,1-2.49,9.38,19.94,19.94,0,0,1-4.19,6.94,7.77,7.77,0,0,1-5.68,2.67A7.16,7.16,0,0,1,430.76,286.81Zm-3.87-23.19a21,21,0,0,0,2.21,9.63q2.21,4.37,5,4.37,3.31,0,5.52-5.91a37,37,0,0,0,2.21-13,21.36,21.36,0,0,0-2.21-9.89q-2.21-4.3-4.88-4.3h-.21a5.62,5.62,0,0,0-2.81,1.25,8,8,0,0,0-1.92,2.38,15.15,15.15,0,0,0-1.26,3.56q-.52,2.18-.83,4.4t-.68,5.23q-.09,1-.15,1.41A8.85,8.85,0,0,0,426.9,263.63Z" transform="translate(-18 -38.44)"/>
		<path class="cls-37" d="M451.23,241.15a11.24,11.24,0,0,1,.71-3.82q.7-2,1.84-2,1.56,0,2.29,2.09a14.63,14.63,0,0,1,.72,4.78q0,.32-.34,5.27-.12,1.93-.12,5.84v1.48q3.68-4,9-13.55a14.75,14.75,0,0,0,.67-1.54q1.66-4.37,3.19-4.37,1.23,0,1.9,1.61a9.55,9.55,0,0,1,.68,3.73,12.25,12.25,0,0,1-2,6.62l-.45.71q-.32.51-.51.77-6,9.44-8.38,12.59.28.45.64,1Q464.3,267,468.53,274a17.17,17.17,0,0,0,1,1.41,20.23,20.23,0,0,1,1.17,1.73,10.56,10.56,0,0,1,.78,2,9.25,9.25,0,0,1,.41,2.79,9.83,9.83,0,0,1-.69,3.79q-.69,1.67-1.95,1.67-1.69,0-3.59-3.6-.55-1-1.44-3t-1.1-2.41q-1.1-2.18-3.57-6.2a24.17,24.17,0,0,0-3.36-4.72l-.12-.13v.32q0,2.12.18,6.46t.18,6.52a14.71,14.71,0,0,1-.58,4.21q-.58,2-2,2-2.49,0-2.49-7.45,0-.83.06-2.63t.06-2.63q0-3.15-.14-9.44t-.14-9.44Z" transform="translate(-18 -38.44)"/>
		<path class="cls-37" d="M476.82,287.26a2.11,2.11,0,0,1-1.87-1.38,7.5,7.5,0,0,1-.71-3.44,15.43,15.43,0,0,1,.28-3.08q.06-.26.71-2.44a53,53,0,0,0,1.26-5.33q.58-3,1-5.65.55-3,1.56-9.15t1.56-9.15q.06-.26.25-1.44t.34-1.9q.34-1.8.66-3.11t.86-2.92a8.16,8.16,0,0,1,1.23-2.47,1.93,1.93,0,0,1,1.49-.87q.83,0,1.7,1.41a16.67,16.67,0,0,1,1.5,3.18q.63,1.77,1.33,4.59t1,4.27q.31,1.45.74,3.69.77,3.85,1.47,8.13t1.35,8.54q.64,4.27.71,4.53t.92,4.43a25.74,25.74,0,0,1,.67,4.75q0,4.82-2.27,4.82-2.67,0-2.67-6.29a21.8,21.8,0,0,0-.12-2.18,36.68,36.68,0,0,0-.86-3.66l-.09-.23a2.27,2.27,0,0,1-.09-.29l-.06-.13s-.09-.06-.21-.06H490a9.82,9.82,0,0,1-1.73-.23,9.94,9.94,0,0,0-1.7-.22,11.66,11.66,0,0,0-6,1.28s0,.06,0,.06,0,0,0,.06a10.13,10.13,0,0,0-.25,1.28q-.43,3.28-.55,4Q478.78,287.26,476.82,287.26Zm9-38.15a120.23,120.23,0,0,0-3.41,16.57,31.18,31.18,0,0,0,6.81-1,3.66,3.66,0,0,0-.09-.58A110.9,110.9,0,0,0,485.77,249.11Z" transform="translate(-18 -38.44)"/>
		<path class="cls-37" d="M513.36,247.51q0-2.31.06-3.66t.31-3.08a8,8,0,0,1,.84-2.79,4.31,4.31,0,0,1,1.58-1.64,9.1,9.1,0,0,1,4.54-1,16.81,16.81,0,0,1,7.95,2,10.08,10.08,0,0,1,4,4.46,16.41,16.41,0,0,1,1.64,7.61q0,6-3,9.51a7.75,7.75,0,0,1,2.79,4.11,21,21,0,0,1,1,6.74,19.86,19.86,0,0,1-1.56,8.06,14.68,14.68,0,0,1-3.93,5.52,19.65,19.65,0,0,1-4.76,3,11.35,11.35,0,0,1-4.45,1q-4.2,0-5.55-3-.71-1.54-1.1-15.32T513.36,247.51Zm5.4-1.8q-.68,1.54-.68,8.8,0,.77,0,2.38t0,2.44a6.4,6.4,0,0,0,2.55-.71l2.64-1.28a9,9,0,0,0,3.85-2.86,7.64,7.64,0,0,0,1.64-5,3.49,3.49,0,0,0-.89-2.41,5.13,5.13,0,0,0-2.21-1.44,17.91,17.91,0,0,0-2.32-.64,9.31,9.31,0,0,0-1.73-.19,8.66,8.66,0,0,0-1.69.13Q519,245.13,518.76,245.71Zm-.61,24.79q0,1.35.09,2.57a8.15,8.15,0,0,0,.72,3.6,2.44,2.44,0,0,0,2.16.83,8.73,8.73,0,0,0,4.25-1.22,9.52,9.52,0,0,0,3.51-3.34,7.39,7.39,0,0,0,1.2-3.79,5.31,5.31,0,0,0-.83-3.15,2.48,2.48,0,0,0-2.09-1.16,6.78,6.78,0,0,0-3.31,1.09q-.8.45-2.42,1.32L519,268.57a1.55,1.55,0,0,0-.72.58A4.83,4.83,0,0,0,518.14,270.5Z" transform="translate(-18 -38.44)"/>
		<path class="cls-37" d="M290.93,334q0-2.5,0-7.48t0-7.42a10.5,10.5,0,0,1,.8-4.17q.8-1.86,2.15-1.86a7.52,7.52,0,0,0,2-.39,7.5,7.5,0,0,1,1.93-.38,18.07,18.07,0,0,1,2.81.22,24.3,24.3,0,0,1,3.22.77,10.66,10.66,0,0,1,3.33,1.7,16.2,16.2,0,0,1,2.85,2.79,12.18,12.18,0,0,1,2.09,4.24,20.76,20.76,0,0,1,.77,5.88,24,24,0,0,1-1.27,8,17.66,17.66,0,0,1-3.36,6,26.59,26.59,0,0,1-4.11,3.82A18.34,18.34,0,0,1,300,348a34.15,34.15,0,0,1-4.33,1.35h-.09q0,1.09.18,3.05t.18,2.6q0,.32.12,1.61t.09,2a13.43,13.43,0,0,1-.52,3.82q-.52,1.77-1.81,1.77t-2.07-1.77a9.65,9.65,0,0,1-.78-3.95q0-4.11,0-12.27T290.93,334Zm4.94-4.24q-.18,5.78-.18,8.61l0,.06a.06.06,0,0,1,.06.06.38.38,0,0,0,.2.1l.2,0a3.82,3.82,0,0,0,1.17.13,7.9,7.9,0,0,0,3.53-.9,12.86,12.86,0,0,0,1.93-1.19,17.34,17.34,0,0,0,2.19-2,10.15,10.15,0,0,0,1.95-2.92,8.59,8.59,0,0,0,.77-3.57,5,5,0,0,0-2.06-3.34,8.84,8.84,0,0,0-5.77-2.5h-1.07a3.75,3.75,0,0,0-2.58.77,1.1,1.1,0,0,1,0,.26Q296,326.89,295.87,329.72Z" transform="translate(-18 -38.44)"/>
		<path class="cls-37" d="M314.92,364.34a2.11,2.11,0,0,1-1.87-1.38,7.5,7.5,0,0,1-.71-3.44,15.51,15.51,0,0,1,.28-3.08q.06-.26.71-2.44a53.37,53.37,0,0,0,1.26-5.33q.58-3,1-5.65.55-3,1.56-9.15t1.57-9.15q.06-.26.25-1.45t.34-1.89q.34-1.8.66-3.12t.86-2.92a8.11,8.11,0,0,1,1.23-2.47,1.93,1.93,0,0,1,1.49-.87q.83,0,1.7,1.41a16.61,16.61,0,0,1,1.5,3.18q.63,1.77,1.33,4.59t1,4.27q.31,1.45.74,3.69.77,3.85,1.47,8.13t1.35,8.54q.64,4.27.71,4.53t.92,4.43a25.82,25.82,0,0,1,.67,4.75q0,4.82-2.27,4.82-2.67,0-2.67-6.29-.06-1.93-.12-2.18a36.64,36.64,0,0,0-.86-3.66L329,352a2.14,2.14,0,0,1-.09-.29l-.06-.13s-.09-.06-.21-.06h-.49a9.78,9.78,0,0,1-1.73-.23,9.93,9.93,0,0,0-1.7-.22,11.66,11.66,0,0,0-6,1.29s0,.06,0,.06,0,0,0,.06a10,10,0,0,0-.25,1.28q-.43,3.28-.55,4Q316.89,364.34,314.92,364.34Zm9-38.15a120.39,120.39,0,0,0-3.41,16.57,31.18,31.18,0,0,0,6.81-1,3.78,3.78,0,0,0-.09-.58A110.69,110.69,0,0,0,323.88,326.19Z" transform="translate(-18 -38.44)"/>
		<path class="cls-37" d="M337.32,356.18a9.64,9.64,0,0,1,.74-3.92q.74-1.67,2-1.67a2.22,2.22,0,0,1,1.81,1.22Q344,355,346.4,355a5.66,5.66,0,0,0,2.61-.64,5.92,5.92,0,0,0,2.3-2.5,9.66,9.66,0,0,0,1-4.75q0-4.56-5.28-4.56a7.13,7.13,0,0,0-2.27.83,4.32,4.32,0,0,1-.6.32,5,5,0,0,1-.63.26,3.61,3.61,0,0,1-1.38.32q-1,0-1.73-1.38a7.17,7.17,0,0,1-.69-3.24q0-4.49,3.1-5.46a9.55,9.55,0,0,0,2.13-1,24.55,24.55,0,0,0,2.59-1.8,9.22,9.22,0,0,0,2.27-2.63,6.24,6.24,0,0,0,.92-3.18,2.64,2.64,0,0,0-.52-1.61,3.39,3.39,0,0,0-2.82-1.67,6.52,6.52,0,0,0-4,1.67,1.2,1.2,0,0,0-.25.29,1.23,1.23,0,0,1-.25.29c-.08.09-.19.21-.32.38l-.26.32a2.36,2.36,0,0,1-1.6.9,2.62,2.62,0,0,1-2.25-1.67,8.53,8.53,0,0,1-.91-4.11q0-8,9.88-8a6.84,6.84,0,0,1,4.07,1.41,10.87,10.87,0,0,1,3.33,4.53,19.65,19.65,0,0,1,.21,13.91q-.12.32-1.81,3.85a17,17,0,0,1,2.87,4.5,15,15,0,0,1,1.06,6q0,.83,0,1.22a28,28,0,0,1-1.52,7.68,14.37,14.37,0,0,1-3,5.14,12.12,12.12,0,0,1-3.73,2.7,9.83,9.83,0,0,1-4,.87,8.78,8.78,0,0,1-2.24-.29,10.18,10.18,0,0,1-2.41-1,5.31,5.31,0,0,1-2.12-2.44A9.54,9.54,0,0,1,337.32,356.18Z" transform="translate(-18 -38.44)"/>
		<path class="cls-37" d="M361,334q0-2.5,0-7.48t0-7.42a10.5,10.5,0,0,1,.8-4.17Q362.7,313,364,313a7.52,7.52,0,0,0,2-.39,7.5,7.5,0,0,1,1.93-.38,18.07,18.07,0,0,1,2.81.22,24.3,24.3,0,0,1,3.22.77,10.66,10.66,0,0,1,3.33,1.7,16.2,16.2,0,0,1,2.85,2.79,12.18,12.18,0,0,1,2.09,4.24,20.76,20.76,0,0,1,.77,5.88,24,24,0,0,1-1.27,8,17.66,17.66,0,0,1-3.36,6,26.59,26.59,0,0,1-4.11,3.82,18.34,18.34,0,0,1-4.17,2.31,34.15,34.15,0,0,1-4.33,1.35h-.09q0,1.09.18,3.05T366,355q0,.32.12,1.61t.09,2a13.43,13.43,0,0,1-.52,3.82q-.52,1.77-1.81,1.77t-2.07-1.77a9.65,9.65,0,0,1-.78-3.95q0-4.11,0-12.27T361,334Zm4.94-4.24q-.18,5.78-.18,8.61l0,.06a.06.06,0,0,1,.06.06.38.38,0,0,0,.2.1l.2,0a3.82,3.82,0,0,0,1.17.13,7.9,7.9,0,0,0,3.53-.9,12.86,12.86,0,0,0,1.93-1.19,17.34,17.34,0,0,0,2.19-2,10.15,10.15,0,0,0,1.95-2.92,8.59,8.59,0,0,0,.77-3.57,5,5,0,0,0-2.06-3.34,8.84,8.84,0,0,0-5.77-2.5h-1.07a3.75,3.75,0,0,0-2.58.77,1.1,1.1,0,0,1,0,.26Q366.07,326.89,366,329.72Z" transform="translate(-18 -38.44)"/>
		<path class="cls-37" d="M385,364.34a2.11,2.11,0,0,1-1.87-1.38,7.5,7.5,0,0,1-.71-3.44,15.51,15.51,0,0,1,.28-3.08q.06-.26.71-2.44a53.37,53.37,0,0,0,1.26-5.33q.58-3,1-5.65.55-3,1.56-9.15t1.57-9.15q.06-.26.25-1.45t.34-1.89q.34-1.8.66-3.12t.86-2.92a8.11,8.11,0,0,1,1.23-2.47,1.93,1.93,0,0,1,1.49-.87q.83,0,1.7,1.41a16.61,16.61,0,0,1,1.5,3.18q.63,1.77,1.33,4.59t1,4.27q.31,1.45.74,3.69.77,3.85,1.47,8.13t1.35,8.54q.64,4.27.71,4.53t.92,4.43a25.82,25.82,0,0,1,.67,4.75q0,4.82-2.27,4.82-2.67,0-2.67-6.29-.06-1.93-.12-2.18a36.64,36.64,0,0,0-.86-3.66l-.09-.22a2.14,2.14,0,0,1-.09-.29l-.06-.13s-.09-.06-.21-.06h-.49a9.78,9.78,0,0,1-1.73-.23,9.93,9.93,0,0,0-1.7-.22,11.66,11.66,0,0,0-6,1.29s0,.06,0,.06,0,0,0,.06a10,10,0,0,0-.25,1.28q-.43,3.28-.55,4Q387,364.34,385,364.34Zm9-38.15a120.39,120.39,0,0,0-3.41,16.57,31.18,31.18,0,0,0,6.81-1,3.78,3.78,0,0,0-.09-.58A110.69,110.69,0,0,0,394,326.19Z" transform="translate(-18 -38.44)"/>
		<path class="cls-37" d="M408.5,341.79a12.35,12.35,0,0,1-.12-1.67q0-.51.09-1.64t.09-1.77q0-.64,0-2t0-2q0-11.43.8-15.41t3.47-4h.83a31,31,0,0,0,5.31-.67,31.08,31.08,0,0,1,5.31-.67,2.66,2.66,0,0,1,2.36,1.7,9.48,9.48,0,0,1,.89,4.4,7.58,7.58,0,0,1-.77,3.73,2.31,2.31,0,0,1-2.06,1.35h-.74a4.56,4.56,0,0,1-1.32-.19,13.73,13.73,0,0,0-4.17-.71,15.3,15.3,0,0,0-2.21.26,5.49,5.49,0,0,0-1.87.51l-.12.06-.06.26a34.17,34.17,0,0,0-.72,4.5q-.29,2.76-.32,4.82,1.17-1.22,4.82-1.22a14,14,0,0,1,5.06.9,8.65,8.65,0,0,1,2.64,1.51,12.08,12.08,0,0,1,2.21,2.47,11.8,11.8,0,0,1,1.6,3.76,21,21,0,0,1,.58,5.17,24.07,24.07,0,0,1-1.44,8.61,16,16,0,0,1-3.68,5.94,16.63,16.63,0,0,1-4.66,3.24,11.39,11.39,0,0,1-4.69,1.09,8.31,8.31,0,0,1-3.07-.58,5.78,5.78,0,0,1-2.55-2.05,7.66,7.66,0,0,1-.92-4.24q0-2.31-.2-7t-.2-7c0-.13,0-.27,0-.42s0-.32,0-.51S408.5,341.88,408.5,341.79Zm4.69,1.61a2.08,2.08,0,0,0-.31,1.28q0,1,.08,4.11a31.77,31.77,0,0,0,.17,3.4,5.38,5.38,0,0,1,.55.45,1.3,1.3,0,0,1,.18.16l.21.26a1,1,0,0,0,.21.22,3.15,3.15,0,0,0,2.06.45h1a6.42,6.42,0,0,0,4.1-1.73,10.88,10.88,0,0,0,3.15-4.5,5.49,5.49,0,0,0,.43-2,4,4,0,0,0-.46-1.28,6.24,6.24,0,0,0-6-3.66,5.64,5.64,0,0,0-2,.26,10.88,10.88,0,0,0-1.86,1.16A8.71,8.71,0,0,0,413.2,343.4Z" transform="translate(-18 -38.44)"/>
		<path class="cls-37" d="M442.38,363.89q-2.85-1.16-5-5a30.9,30.9,0,0,1-3.07-8.83,52.43,52.43,0,0,1-1-10.08q0-1.54.09-3,1.84-24.73,12.76-24.73,5.46,0,8.81,6.49t3.34,16.44a61,61,0,0,1-.87,10.31,50.85,50.85,0,0,1-2.49,9.38,19.93,19.93,0,0,1-4.19,6.94,7.77,7.77,0,0,1-5.68,2.67A7.17,7.17,0,0,1,442.38,363.89Zm-3.87-23.19a21,21,0,0,0,2.21,9.63q2.21,4.37,5,4.37,3.31,0,5.52-5.91a37,37,0,0,0,2.21-13,21.36,21.36,0,0,0-2.21-9.89q-2.21-4.3-4.88-4.3h-.21a5.63,5.63,0,0,0-2.81,1.25,8,8,0,0,0-1.92,2.38,15.16,15.16,0,0,0-1.26,3.56q-.52,2.18-.83,4.4t-.67,5.23q-.09,1-.15,1.41A8.76,8.76,0,0,0,438.51,340.7Z" transform="translate(-18 -38.44)"/>
		<path class="cls-37" d="M462.59,324.2q-1.26,0-2-2.09a12.14,12.14,0,0,1-.75-4.14,7.52,7.52,0,0,1,.78-3.66,2.3,2.3,0,0,1,2-1.41q2.61,0,7.85-.29t7.88-.29a2.52,2.52,0,0,1,2.16,1.51,7.69,7.69,0,0,1,.88,3.89,9.35,9.35,0,0,1-.84,4.08q-.85,1.77-2.16,1.77a23,23,0,0,1-2.72-.22,23,23,0,0,0-2.53-.22q-.18,1.35-.28,2.76-.37,6.49-.37,16.31,0,6.49.46,11.82.28,3.15.28,5.2a10.18,10.18,0,0,1-.6,3.63q-.6,1.57-1.83,1.57-2.49,0-2.7-5.59,0-.77,0-2.31,0-5.14-.15-15.42t-.15-15.42q0-.39,0-1.16c0-.51,0-.88,0-1.09,0-.39-.05-.58-.15-.58a1.81,1.81,0,0,0-.71-.13,3.92,3.92,0,0,0-2.24.71A4.13,4.13,0,0,1,462.59,324.2Z" transform="translate(-18 -38.44)"/>
		<path class="cls-37" d="M484.19,318.22a11.23,11.23,0,0,1,.71-3.82q.71-2,1.84-2,1.56,0,2.29,2.09a14.63,14.63,0,0,1,.72,4.78q0,.32-.34,5.27-.12,1.93-.12,5.84v1.48q3.68-4,9-13.55a14.78,14.78,0,0,0,.68-1.54q1.66-4.37,3.19-4.37,1.23,0,1.9,1.61a9.57,9.57,0,0,1,.67,3.73,12.25,12.25,0,0,1-2,6.62l-.45.71q-.32.51-.51.77-6,9.44-8.38,12.59.28.45.64,1,3.25,4.62,7.49,11.69.31.51,1,1.41a20.41,20.41,0,0,1,1.17,1.73,10.45,10.45,0,0,1,.78,2,9.28,9.28,0,0,1,.41,2.79,9.85,9.85,0,0,1-.69,3.79q-.69,1.67-1.95,1.67-1.69,0-3.59-3.6-.55-1-1.44-3t-1.1-2.41q-1.1-2.18-3.57-6.2a24.19,24.19,0,0,0-3.36-4.72l-.12-.13v.32q0,2.12.18,6.46t.18,6.52a14.68,14.68,0,0,1-.58,4.21q-.58,2-2,2-2.48,0-2.48-7.45,0-.83.06-2.63t.06-2.63q0-3.15-.14-9.44t-.14-9.44Z" transform="translate(-18 -38.44)"/>
		<path class="cls-37" d="M509,349.24q0-4.82-.17-14.45t-.17-14.52q0-7.19,2.39-7.51a39.31,39.31,0,0,1,4.14-.13l2.92,0,2.88,0a15.11,15.11,0,0,1,3.07.19,2.88,2.88,0,0,1,1.87,2,9.73,9.73,0,0,1,.71,3.76,7.69,7.69,0,0,1-.77,3.63,2.25,2.25,0,0,1-2,1.45,5.42,5.42,0,0,1-2.21-.58,9.65,9.65,0,0,0-3.13-.77q-1.14-.06-3.28-.06a2.72,2.72,0,0,0-.74.06.4.4,0,0,0-.25.19,3.82,3.82,0,0,0-.34,1.67q-.12,1.48-.18,4.56v4.82a2.2,2.2,0,0,0,0,.45h.21a29.25,29.25,0,0,0,5-.64,29.29,29.29,0,0,1,5-.64q1.32,0,2,1.83a10.89,10.89,0,0,1,.72,4,7.75,7.75,0,0,1-.72,3.53,2.16,2.16,0,0,1-1.92,1.41q-1.08,0-3.21-.16t-3.18-.16l-.75,0a4.86,4.86,0,0,0-.8,0l-.69.06a2.24,2.24,0,0,0-.75.19,2.91,2.91,0,0,0-.66.42l-.23.16a.56.56,0,0,1-.17.1l-.06.06a6.92,6.92,0,0,0,0,.83,79.27,79.27,0,0,0,.25,9l0,.19c0,.09,0,.13.12.13a2.23,2.23,0,0,0,.58.19,13.84,13.84,0,0,0,4.91-.71q.55-.19,1.9-.83t2.06-.9a1.9,1.9,0,0,1,.55-.13q1.14,0,1.72,1.7a11.36,11.36,0,0,1,.06,7,2.23,2.23,0,0,1-1.66,1.7,4,4,0,0,0-1.14.32,17.47,17.47,0,0,1-7.12,1.67,9.3,9.3,0,0,1-1.26-.06,11.8,11.8,0,0,1-2.87-.77,4.09,4.09,0,0,1-1.69-1.57,7,7,0,0,1-.94-3,48.15,48.15,0,0,1-.21-5.2q0-.77,0-2.22C509,350.43,509,349.72,509,349.24Z" transform="translate(-18 -38.44)"/>
	</g>
</svg>